<mxfile host="Electron" agent="Mozilla/5.0 (Windows NT 10.0; Win64; x64) AppleWebKit/537.36 (KHTML, like Gecko) draw.io/26.0.16 Chrome/132.0.6834.196 Electron/34.2.0 Safari/537.36" version="26.0.16">
  <diagram name="Page-1" id="eDOmN8ddeN5TyVE-GVM2">
    <mxGraphModel dx="989" dy="610" grid="1" gridSize="10" guides="1" tooltips="1" connect="1" arrows="1" fold="1" page="1" pageScale="1" pageWidth="1100" pageHeight="850" math="0" shadow="0">
      <root>
        <mxCell id="0" />
        <mxCell id="1" parent="0" />
        <mxCell id="jWsUyRXlON7tYup3zoa7-61" value="" style="rounded=0;whiteSpace=wrap;html=1;dashed=1;" vertex="1" parent="1">
          <mxGeometry x="240" y="160" width="560" height="480" as="geometry" />
        </mxCell>
        <mxCell id="jWsUyRXlON7tYup3zoa7-2" value="" style="rounded=0;whiteSpace=wrap;html=1;dashed=1;fillColor=none;" vertex="1" parent="1">
          <mxGeometry x="70" y="160" width="130" height="480" as="geometry" />
        </mxCell>
        <mxCell id="jWsUyRXlON7tYup3zoa7-3" value="&lt;font style=&quot;font-size: 24px;&quot;&gt;Source&lt;/font&gt;" style="text;html=1;align=center;verticalAlign=middle;whiteSpace=wrap;rounded=0;fillColor=default;" vertex="1" parent="1">
          <mxGeometry x="84.24" y="140" width="100" height="40" as="geometry" />
        </mxCell>
        <mxCell id="jWsUyRXlON7tYup3zoa7-6" value="" style="rounded=0;whiteSpace=wrap;html=1;dashed=1;fillColor=none;" vertex="1" parent="1">
          <mxGeometry x="840" y="160" width="140" height="480" as="geometry" />
        </mxCell>
        <mxCell id="jWsUyRXlON7tYup3zoa7-8" value="&lt;font style=&quot;font-size: 24px;&quot;&gt;Consume&lt;/font&gt;" style="text;html=1;align=center;verticalAlign=middle;whiteSpace=wrap;rounded=0;fillColor=default;" vertex="1" parent="1">
          <mxGeometry x="850" y="140" width="120" height="40" as="geometry" />
        </mxCell>
        <mxCell id="jWsUyRXlON7tYup3zoa7-7" value="&lt;span style=&quot;font-size: 24px;&quot;&gt;Data Warehouse&lt;/span&gt;" style="text;html=1;align=center;verticalAlign=middle;whiteSpace=wrap;rounded=0;fillColor=default;" vertex="1" parent="1">
          <mxGeometry x="430" y="140" width="200" height="40" as="geometry" />
        </mxCell>
        <mxCell id="jWsUyRXlON7tYup3zoa7-9" value="" style="image;aspect=fixed;html=1;points=[];align=center;fontSize=12;image=img/lib/azure2/general/Folder_Blank.svg;" vertex="1" parent="1">
          <mxGeometry x="103.4" y="197.64999999999998" width="48.48" height="39.35" as="geometry" />
        </mxCell>
        <mxCell id="jWsUyRXlON7tYup3zoa7-10" value="" style="image;aspect=fixed;html=1;points=[];align=center;fontSize=12;image=img/lib/azure2/general/Folder_Blank.svg;" vertex="1" parent="1">
          <mxGeometry x="103.4" y="317.65" width="61.6" height="50" as="geometry" />
        </mxCell>
        <mxCell id="jWsUyRXlON7tYup3zoa7-13" value="" style="verticalLabelPosition=bottom;html=1;verticalAlign=top;align=center;strokeColor=none;fillColor=#00BEF2;shape=mxgraph.azure.file_2;pointerEvents=1;" vertex="1" parent="1">
          <mxGeometry x="135.4" y="227" width="28" height="30" as="geometry" />
        </mxCell>
        <mxCell id="jWsUyRXlON7tYup3zoa7-14" value="" style="verticalLabelPosition=bottom;html=1;verticalAlign=top;align=center;strokeColor=none;fillColor=#00BEF2;shape=mxgraph.azure.file_2;pointerEvents=1;" vertex="1" parent="1">
          <mxGeometry x="137" y="324.35" width="28" height="30" as="geometry" />
        </mxCell>
        <mxCell id="jWsUyRXlON7tYup3zoa7-16" value="ERP" style="text;html=1;align=center;verticalAlign=middle;whiteSpace=wrap;rounded=0;" vertex="1" parent="1">
          <mxGeometry x="103.4" y="257" width="60" height="30" as="geometry" />
        </mxCell>
        <mxCell id="jWsUyRXlON7tYup3zoa7-17" value="CRM" style="text;html=1;align=center;verticalAlign=middle;whiteSpace=wrap;rounded=0;" vertex="1" parent="1">
          <mxGeometry x="103.4" y="372" width="60" height="30" as="geometry" />
        </mxCell>
        <mxCell id="jWsUyRXlON7tYup3zoa7-18" value="&lt;font style=&quot;font-size: 16px;&quot;&gt;Bronze Layer&lt;/font&gt;" style="text;html=1;align=center;verticalAlign=middle;whiteSpace=wrap;rounded=0;strokeColor=#d79b00;fillColor=#ffe6cc;" vertex="1" parent="1">
          <mxGeometry x="260" y="200" width="160" height="40" as="geometry" />
        </mxCell>
        <mxCell id="jWsUyRXlON7tYup3zoa7-20" value="" style="rounded=0;whiteSpace=wrap;html=1;fillColor=none;strokeColor=#d79b00;" vertex="1" parent="1">
          <mxGeometry x="260" y="260" width="160" height="360" as="geometry" />
        </mxCell>
        <mxCell id="jWsUyRXlON7tYup3zoa7-22" value="&lt;font style=&quot;font-size: 16px;&quot;&gt;Silver Layer&lt;/font&gt;" style="text;html=1;align=center;verticalAlign=middle;whiteSpace=wrap;rounded=0;strokeColor=#666666;fillColor=#f5f5f5;fontColor=#333333;" vertex="1" parent="1">
          <mxGeometry x="440" y="200" width="160" height="40" as="geometry" />
        </mxCell>
        <mxCell id="jWsUyRXlON7tYup3zoa7-23" value="" style="rounded=0;whiteSpace=wrap;html=1;fillColor=none;strokeColor=#666666;fontColor=#333333;" vertex="1" parent="1">
          <mxGeometry x="440" y="260" width="160" height="360" as="geometry" />
        </mxCell>
        <mxCell id="jWsUyRXlON7tYup3zoa7-24" value="&lt;font style=&quot;font-size: 16px;&quot;&gt;Gold Layer&lt;/font&gt;" style="text;html=1;align=center;verticalAlign=middle;whiteSpace=wrap;rounded=0;strokeColor=#d6b656;fillColor=#fff2cc;" vertex="1" parent="1">
          <mxGeometry x="620" y="200" width="160" height="40" as="geometry" />
        </mxCell>
        <mxCell id="jWsUyRXlON7tYup3zoa7-25" value="" style="rounded=0;whiteSpace=wrap;html=1;fillColor=none;strokeColor=#d6b656;" vertex="1" parent="1">
          <mxGeometry x="620" y="260" width="160" height="360" as="geometry" />
        </mxCell>
        <mxCell id="jWsUyRXlON7tYup3zoa7-26" value="" style="shape=singleArrow;whiteSpace=wrap;html=1;fillColor=#dae8fc;strokeColor=#6c8ebf;" vertex="1" parent="1">
          <mxGeometry x="180" y="306.65" width="100" height="40" as="geometry" />
        </mxCell>
        <mxCell id="jWsUyRXlON7tYup3zoa7-27" value="" style="shape=singleArrow;whiteSpace=wrap;html=1;fillColor=#dae8fc;strokeColor=#6c8ebf;" vertex="1" parent="1">
          <mxGeometry x="390" y="306.65" width="80" height="40" as="geometry" />
        </mxCell>
        <mxCell id="jWsUyRXlON7tYup3zoa7-28" value="" style="shape=singleArrow;whiteSpace=wrap;html=1;fillColor=#dae8fc;strokeColor=#6c8ebf;" vertex="1" parent="1">
          <mxGeometry x="570" y="306.65" width="80" height="40" as="geometry" />
        </mxCell>
        <mxCell id="jWsUyRXlON7tYup3zoa7-29" value="" style="shape=singleArrow;whiteSpace=wrap;html=1;fillColor=#dae8fc;strokeColor=#6c8ebf;" vertex="1" parent="1">
          <mxGeometry x="770" y="306.65" width="100" height="40" as="geometry" />
        </mxCell>
        <mxCell id="jWsUyRXlON7tYup3zoa7-30" value="" style="html=1;verticalLabelPosition=bottom;align=center;labelBackgroundColor=#ffffff;verticalAlign=top;strokeWidth=2;strokeColor=#d79b00;shadow=0;dashed=0;shape=mxgraph.ios7.icons.data;fillColor=#ffe6cc;" vertex="1" parent="1">
          <mxGeometry x="310" y="306.65" width="50" height="54.55" as="geometry" />
        </mxCell>
        <mxCell id="jWsUyRXlON7tYup3zoa7-31" value="" style="html=1;verticalLabelPosition=bottom;align=center;labelBackgroundColor=#ffffff;verticalAlign=top;strokeWidth=2;strokeColor=#666666;shadow=0;dashed=0;shape=mxgraph.ios7.icons.data;fillColor=#f5f5f5;fontColor=#333333;" vertex="1" parent="1">
          <mxGeometry x="495" y="306.65" width="50" height="54.55" as="geometry" />
        </mxCell>
        <mxCell id="jWsUyRXlON7tYup3zoa7-33" value="" style="html=1;verticalLabelPosition=bottom;align=center;labelBackgroundColor=#ffffff;verticalAlign=top;strokeWidth=2;strokeColor=#d6b656;shadow=0;dashed=0;shape=mxgraph.ios7.icons.data;fillColor=#fff2cc;" vertex="1" parent="1">
          <mxGeometry x="675" y="306.65" width="50" height="54.55" as="geometry" />
        </mxCell>
        <mxCell id="jWsUyRXlON7tYup3zoa7-34" value="&lt;font style=&quot;font-size: 9px;&quot;&gt;&lt;b style=&quot;&quot;&gt;Object Type:&lt;/b&gt; CSV&lt;/font&gt;&lt;div&gt;&lt;font style=&quot;font-size: 9px;&quot;&gt;&lt;br&gt;&lt;/font&gt;&lt;/div&gt;&lt;div&gt;&lt;font style=&quot;font-size: 9px;&quot;&gt;&lt;b style=&quot;&quot;&gt;Interface: &lt;/b&gt;Files in Folders&lt;/font&gt;&lt;/div&gt;" style="text;html=1;align=left;verticalAlign=top;whiteSpace=wrap;rounded=0;labelPosition=center;verticalLabelPosition=middle;" vertex="1" parent="1">
          <mxGeometry x="89.24" y="410" width="90" height="210" as="geometry" />
        </mxCell>
        <mxCell id="jWsUyRXlON7tYup3zoa7-36" value="&lt;div style=&quot;line-height: 100%;&quot;&gt;&lt;div style=&quot;padding-bottom: 5px;&quot;&gt;&lt;font style=&quot;line-height: 100%; font-size: 9px;&quot;&gt;&lt;b style=&quot;background-color: transparent; color: light-dark(rgb(0, 0, 0), rgb(255, 255, 255));&quot;&gt;Object Type:&lt;/b&gt;&lt;span style=&quot;background-color: transparent; color: light-dark(rgb(0, 0, 0), rgb(255, 255, 255));&quot;&gt;&amp;nbsp;Table&lt;/span&gt;&lt;/font&gt;&lt;/div&gt;&lt;div style=&quot;&quot;&gt;&lt;span style=&quot;font-size: 9px; background-color: transparent; color: light-dark(rgb(0, 0, 0), rgb(255, 255, 255));&quot;&gt;&amp;nbsp;&lt;/span&gt;&lt;b style=&quot;font-size: 9px; background-color: transparent; color: light-dark(rgb(0, 0, 0), rgb(255, 255, 255));&quot;&gt;Load&lt;/b&gt;&lt;b style=&quot;font-size: 9px; background-color: transparent; color: light-dark(rgb(0, 0, 0), rgb(255, 255, 255));&quot;&gt;:&lt;/b&gt;&lt;/div&gt;&lt;div style=&quot;&quot;&gt;&lt;ul style=&quot;margin-top: 5px; padding-left: 25px;&quot;&gt;&lt;li&gt;&lt;font style=&quot;line-height: 100%; font-size: 9px;&quot;&gt;Batch Processing&lt;/font&gt;&lt;/li&gt;&lt;li&gt;&lt;font style=&quot;line-height: 100%; font-size: 9px;&quot;&gt;Full Load&lt;/font&gt;&lt;/li&gt;&lt;li&gt;&lt;font style=&quot;line-height: 100%; font-size: 9px;&quot;&gt;Truncate &amp;amp; Insert&lt;/font&gt;&lt;/li&gt;&lt;/ul&gt;&lt;b style=&quot;background-color: transparent; color: light-dark(rgb(0, 0, 0), rgb(255, 255, 255)); line-height: 100%;&quot;&gt;&lt;font style=&quot;font-size: 9px;&quot;&gt;No Transformations&lt;/font&gt;&lt;/b&gt;&lt;/div&gt;&lt;div style=&quot;&quot;&gt;&lt;font style=&quot;font-size: 9px;&quot;&gt;&lt;b&gt;&lt;br&gt;&lt;/b&gt;&lt;/font&gt;&lt;/div&gt;&lt;div style=&quot;&quot;&gt;&lt;font style=&quot;line-height: 100%; font-size: 9px;&quot;&gt;&lt;b style=&quot;&quot;&gt;Data Model: None (as-is)&lt;/b&gt;&lt;/font&gt;&lt;/div&gt;&lt;div&gt;&lt;/div&gt;&lt;/div&gt;" style="text;html=1;align=left;verticalAlign=top;whiteSpace=wrap;rounded=0;" vertex="1" parent="1">
          <mxGeometry x="280" y="410" width="120" height="180" as="geometry" />
        </mxCell>
        <mxCell id="jWsUyRXlON7tYup3zoa7-37" value="Raw Data" style="text;html=1;align=center;verticalAlign=middle;whiteSpace=wrap;rounded=0;" vertex="1" parent="1">
          <mxGeometry x="305" y="361.2" width="60" height="30" as="geometry" />
        </mxCell>
        <mxCell id="jWsUyRXlON7tYup3zoa7-38" value="Cleaned, Standardized Data" style="text;html=1;align=center;verticalAlign=middle;whiteSpace=wrap;rounded=0;" vertex="1" parent="1">
          <mxGeometry x="450" y="372" width="140" height="30" as="geometry" />
        </mxCell>
        <mxCell id="jWsUyRXlON7tYup3zoa7-40" value="Business Ready Data" style="text;html=1;align=center;verticalAlign=middle;whiteSpace=wrap;rounded=0;" vertex="1" parent="1">
          <mxGeometry x="630" y="368" width="140" height="30" as="geometry" />
        </mxCell>
        <mxCell id="jWsUyRXlON7tYup3zoa7-55" value="" style="verticalLabelPosition=bottom;shadow=0;dashed=0;align=center;html=1;verticalAlign=top;strokeWidth=1;shape=mxgraph.mockup.markup.line;strokeColor=#d79b00;fillColor=#ffe6cc;" vertex="1" parent="1">
          <mxGeometry x="285" y="400" width="100" height="20" as="geometry" />
        </mxCell>
        <mxCell id="jWsUyRXlON7tYup3zoa7-56" value="" style="verticalLabelPosition=bottom;shadow=0;dashed=0;align=center;html=1;verticalAlign=top;strokeWidth=1;shape=mxgraph.mockup.markup.line;strokeColor=#666666;fillColor=#f5f5f5;fontColor=#333333;" vertex="1" parent="1">
          <mxGeometry x="470" y="402" width="100" height="20" as="geometry" />
        </mxCell>
        <mxCell id="jWsUyRXlON7tYup3zoa7-59" value="&lt;div style=&quot;line-height: 100%;&quot;&gt;&lt;div style=&quot;padding-bottom: 6px;&quot;&gt;&lt;font style=&quot;font-size: 9px;&quot;&gt;&lt;b style=&quot;background-color: transparent; color: light-dark(rgb(0, 0, 0), rgb(255, 255, 255)); line-height: 100%;&quot;&gt;Object Type:&lt;/b&gt;&lt;span style=&quot;background-color: transparent; color: light-dark(rgb(0, 0, 0), rgb(255, 255, 255)); line-height: 100%;&quot;&gt;&amp;nbsp;Table&lt;/span&gt;&lt;/font&gt;&lt;/div&gt;&lt;div style=&quot;&quot;&gt;&lt;span style=&quot;font-size: 9px; background-color: transparent; color: light-dark(rgb(0, 0, 0), rgb(255, 255, 255)); line-height: 100%;&quot;&gt;&amp;nbsp;&lt;/span&gt;&lt;b style=&quot;font-size: 9px; background-color: transparent; color: light-dark(rgb(0, 0, 0), rgb(255, 255, 255)); line-height: 100%;&quot;&gt;Load&lt;/b&gt;&lt;b style=&quot;font-size: 9px; background-color: transparent; color: light-dark(rgb(0, 0, 0), rgb(255, 255, 255)); line-height: 100%;&quot;&gt;:&lt;/b&gt;&lt;/div&gt;&lt;div style=&quot;&quot;&gt;&lt;ul style=&quot;padding-left: 25px; margin-top: 5px;&quot;&gt;&lt;li&gt;&lt;span style=&quot;font-size: 9px; background-color: transparent; color: light-dark(rgb(0, 0, 0), rgb(255, 255, 255));&quot;&gt;Batch Processing&lt;/span&gt;&lt;/li&gt;&lt;li&gt;&lt;font style=&quot;line-height: 100%; font-size: 9px;&quot;&gt;Full Load&lt;/font&gt;&lt;/li&gt;&lt;li&gt;&lt;font style=&quot;line-height: 100%; font-size: 9px;&quot;&gt;Truncate &amp;amp; Insert&lt;/font&gt;&lt;/li&gt;&lt;/ul&gt;&lt;font style=&quot;line-height: 100%; font-size: 9px;&quot;&gt;&lt;b&gt;Transformations&lt;/b&gt;&lt;/font&gt;&lt;/div&gt;&lt;div style=&quot;&quot;&gt;&lt;ul style=&quot;margin-top: 5px;&quot;&gt;&lt;li&gt;&lt;font style=&quot;line-height: 100%; font-size: 9px;&quot;&gt;Data Cleansing&lt;/font&gt;&lt;/li&gt;&lt;li&gt;&lt;font style=&quot;line-height: 100%; font-size: 9px;&quot;&gt;Data Standardization&lt;/font&gt;&lt;/li&gt;&lt;li&gt;&lt;font style=&quot;line-height: 100%; font-size: 9px;&quot;&gt;Data Normalization&lt;/font&gt;&lt;/li&gt;&lt;li&gt;&lt;font style=&quot;line-height: 100%; font-size: 9px;&quot;&gt;Derived Columns&lt;/font&gt;&lt;/li&gt;&lt;li&gt;&lt;font style=&quot;line-height: 100%; font-size: 9px;&quot;&gt;Data Enrichment&lt;/font&gt;&lt;/li&gt;&lt;/ul&gt;&lt;/div&gt;&lt;div style=&quot;&quot;&gt;&lt;b style=&quot;font-size: 9px; background-color: transparent; color: light-dark(rgb(0, 0, 0), rgb(255, 255, 255));&quot;&gt;Data Model: None (as-is)&lt;/b&gt;&lt;/div&gt;&lt;/div&gt;" style="text;html=1;align=left;verticalAlign=top;whiteSpace=wrap;rounded=0;spacing=2;" vertex="1" parent="1">
          <mxGeometry x="460" y="410" width="130" height="210" as="geometry" />
        </mxCell>
        <mxCell id="jWsUyRXlON7tYup3zoa7-58" value="" style="verticalLabelPosition=bottom;shadow=0;dashed=0;align=center;html=1;verticalAlign=top;strokeWidth=1;shape=mxgraph.mockup.markup.line;strokeColor=#d6b656;fillColor=#fff2cc;" vertex="1" parent="1">
          <mxGeometry x="650" y="400" width="100" height="20" as="geometry" />
        </mxCell>
        <mxCell id="jWsUyRXlON7tYup3zoa7-60" value="&lt;div style=&quot;line-height: 100%;&quot;&gt;&lt;div style=&quot;padding-bottom: 6px;&quot;&gt;&lt;font style=&quot;font-size: 9px;&quot;&gt;&lt;b style=&quot;background-color: transparent; color: light-dark(rgb(0, 0, 0), rgb(255, 255, 255)); line-height: 100%;&quot;&gt;Object Type:&lt;/b&gt;&lt;span style=&quot;background-color: transparent; color: light-dark(rgb(0, 0, 0), rgb(255, 255, 255)); line-height: 100%;&quot;&gt;&amp;nbsp;View&lt;/span&gt;&lt;/font&gt;&lt;/div&gt;&lt;div style=&quot;padding-bottom: 6px;&quot;&gt;&lt;span style=&quot;font-size: 9px; background-color: transparent; color: light-dark(rgb(0, 0, 0), rgb(255, 255, 255)); line-height: 100%;&quot;&gt;&amp;nbsp;&lt;b&gt;No Load&lt;/b&gt;&lt;/span&gt;&lt;/div&gt;&lt;div style=&quot;&quot;&gt;&lt;font style=&quot;line-height: 100%; font-size: 9px;&quot;&gt;&lt;b&gt;Transformations&lt;/b&gt;&lt;/font&gt;&lt;/div&gt;&lt;div style=&quot;&quot;&gt;&lt;ul style=&quot;margin-top: 5px; padding-left: 25px;&quot;&gt;&lt;li&gt;&lt;font style=&quot;line-height: 100%; font-size: 9px;&quot;&gt;Data Integrations&lt;/font&gt;&lt;/li&gt;&lt;li&gt;&lt;font style=&quot;line-height: 100%; font-size: 9px;&quot;&gt;Aggregations&lt;/font&gt;&lt;/li&gt;&lt;li&gt;&lt;font style=&quot;line-height: 100%; font-size: 9px;&quot;&gt;Business Logics&lt;/font&gt;&lt;/li&gt;&lt;/ul&gt;&lt;/div&gt;&lt;div style=&quot;&quot;&gt;&lt;b style=&quot;font-size: 9px; background-color: transparent; color: light-dark(rgb(0, 0, 0), rgb(255, 255, 255));&quot;&gt;Data Model:&lt;/b&gt;&lt;/div&gt;&lt;div style=&quot;&quot;&gt;&lt;ul style=&quot;margin-top: 5px; padding-left: 25px;&quot;&gt;&lt;li&gt;&lt;span style=&quot;font-size: 9px; background-color: transparent; color: light-dark(rgb(0, 0, 0), rgb(255, 255, 255));&quot;&gt;Star Schema&lt;/span&gt;&lt;/li&gt;&lt;li&gt;&lt;span style=&quot;font-size: 9px; background-color: transparent; color: light-dark(rgb(0, 0, 0), rgb(255, 255, 255));&quot;&gt;Flat Table&lt;/span&gt;&lt;/li&gt;&lt;li&gt;&lt;span style=&quot;font-size: 9px; background-color: transparent; color: light-dark(rgb(0, 0, 0), rgb(255, 255, 255));&quot;&gt;Aggregated Table&lt;/span&gt;&lt;/li&gt;&lt;/ul&gt;&lt;/div&gt;&lt;/div&gt;" style="text;html=1;align=left;verticalAlign=top;whiteSpace=wrap;rounded=0;spacing=2;" vertex="1" parent="1">
          <mxGeometry x="640" y="410" width="130" height="210" as="geometry" />
        </mxCell>
        <mxCell id="jWsUyRXlON7tYup3zoa7-63" value="" style="image;aspect=fixed;html=1;points=[];align=center;fontSize=12;image=img/lib/azure2/power_platform/PowerBI.svg;" vertex="1" parent="1">
          <mxGeometry x="892" y="239" width="36" height="48" as="geometry" />
        </mxCell>
        <mxCell id="jWsUyRXlON7tYup3zoa7-64" value="BI &amp;amp; Reporting" style="text;html=1;align=center;verticalAlign=middle;whiteSpace=wrap;rounded=0;" vertex="1" parent="1">
          <mxGeometry x="870" y="287" width="90" height="30" as="geometry" />
        </mxCell>
        <mxCell id="jWsUyRXlON7tYup3zoa7-65" value="" style="shape=image;verticalLabelPosition=bottom;labelBackgroundColor=default;verticalAlign=top;aspect=fixed;imageAspect=0;image=data:image/png,iVBORw0KGgoAAAANSUhEUgAAAgAAAAIACAYAAAD0eNT6AAAAAXNSR0IArs4c6QAAIABJREFUeAHtnQfYBTWVv48KdsUurIpYsHfX7tobrr13XUF0RQTbuvZeV10Liti7shYUu9hRbNjArotYEDs27Pr/3597J46XufdmJieZ9uZ5vufmm8mcSd6clEk5McNBAAIQgAAEIAABCEAAAhCAAAQgAAEIQAACEIAABCAAAQhAAAIQgAAEIAABCEAAAhCAAAQgAAEIQAACEIAABCAAAQhAAAIQgAAEIAABCEAAAhCAAAQgAAEIQAACEIAABCAAAQhAAAIQgAAEIAABCEAAAhCAAAQgAAEIQAACEIAABCAAAQhAAAIQgAAEIAABCEAAAhCAAAQgAAEIQAACEIAABCAAAQhAAAIQgAAEIAABCEAAAhCAAAQgAAEIQAACEIAABCAAAQhAAAIQgAAEIAABCEAAAiMjcHIzO7OZnc3Mzm9mFzazy5vZVczserU//a/r1d8lluHPYWanHFmaiS4EIAABCEBgkgROZmbnNrNrmtndzOyBZvY0M3u5mb3DzD5pZsea2Ylm9v+c/n5jZt83s6PN7HAzO9TMXrag+1gzu6eZXd/MLmpmp50kcRIFAQhAAAIQKEhAjfweZravmT178XX+djP7ipn9zqlR9+ocrMr5qZl9zszeYGaPNrPbmNnFzGzHgux4FQQgAAEIQGDwBHYws4ub2Z0XX9BPN7PDzOwnA2/kVxv9mP//aGZfXqT1jWb2KDO74XJ6YvAZRAQhAAEIQAACHgQ0J39TM/uvRSP4iRF80cc07l3D/NXMvmZmr1x0evZZTGH8MyMFHiqGDAhAAAIQGAKBnRdfvrc1s+eZ2RcXX79/meDXfdcOQNNzvzWz95nZfyzWGlzOzLSQEQcBCMycwBmWQ4aqUPUVpb9TzZwJyR8mAa2cv9/iS/+zNPbJCxE1HXKwmd1rMVJwvmFmN7GCAAS6ENCK5l3N7DpmtvdyWPS1ZvaB5Yrj483szxGVqL4avrNcAa3FUlqh/MjF8OIdllubduoSOZ6BQAcCWg3/pQidbfr65dr2nQtaR/DE5ehAh+zhEQhAoC8CFzGzuyxXNX/MzLS9qFSl9z0zO2TZMbjRYkj2rH1B4L2TJSD9/nFBnS5Vdob6nm+b2bMWHwz/wlTBZMsUCRsxAQ3Z7WlmrzOzHw6sYtRcrLYrPcPMbrz4Pf2IORP1/glom5v0aaiN5dTjpfrlADO7Yv+qQAwgMF8C2tIkAyFHjqwy/NPCMppGJfYzM60zwEGgDYG7j0zfp9wh+Ooi41QH7dYmAwkLAQh0I6Av/ccthve/NZFKUOsOtB9b0xWn6YaEp2ZG4CMT0f0pdQxUjt9tZnc0s1PPTB9JLgSyEtAKfBkv0YK9KW9t+oWZHbjco5wVKMJHS0DD/0O30Delhr1LWmSh8Clmdp7RahkRh8AACGhFvYbJZRu8S0Ec8zOa1pD99VMMIB+IwnAInH2GZWGs5VgfK9oppMOQtAsJBwEIRBBQz1mLbDwPGRlrJfINM7s3J6VFaM08gsgmxVh1ec7x/vxykTLTA/Mop6SyA4FdzOy5ZvZ7KrmTVPLHLE5euwcjAh20anqPyGbFnBvTMaf9B8tTFU83PbUkRRDoRuCMy2NG+eLfXrHLnvmtumHmqYkQeNFAOwAnLE4U/JmZ/a+ZaeRK01g6g0CLXKu/Dy+v657+tJ1Re+z17Jgb9rZxl9XBhy9sC6juw0FglgQ0L6YtTXzRtK/8VKHq6FPc/AhcJtJqZdtGaV344xYWND9qZi9fjEA9wczuv2jg77S0qnnJ5VZWnTSY6lQfnMXMzr+0qnn95ToYWdo8yMzeubR8+MsJdRbU8dGuJqUbB4HZEFAldsSECvK6yjPndR17KutkGBaaTbEJCX2mc9mRietPLxvaByy+zG+2PDp4qFtTz2RmV17Oq+u0w3ctRxJ06l/OMpdL9q8W8X4MZTnoN56JEtDhJY9fDH+p8cpVmOYmV+sDdMYBbj4EtDtE59130fWfL0/Be9ryS14jSVPZbaK59SstRyles9g+/M2OjLpw9XhGo6Fa9OsxojKf0kBKR0FAZ3AfNbIC6VGoS8jQl49sCOgkQ9w8COj42gcvFpXp63GTjsl07f8s5uf3NbNLzdCW/dnM7F+XQ+1ag/CHLbw2sSx1TxYGbz4PNSaVUyegub2H8NW/sZL2qlhkIfHyU1co0vcPBGQv4z7LczBkLEuWAjVnrmNtL/wPIflHBDRKsMfybI4vmNmQpw0OX45okHMQGCUB9b61eMergcstR1MTGiLVn4bjtKpZflnpy/1uL/naRqmvPYyPjLLIEOnCBM6xtDSqKZWSp4bGlncZFHoxp4oW1gpel0xAi3R0NG6sopcIpxXEOojnhQuTqg81s9ub2VWWK4+3bcnRPOk5l6vvr7tcgKRV0Qeb2VfMTIf8lEhD7DvezJRAsg4jYF4EtOhRQ++vWHb+Y8taiXDaOqgTT+nYz0snR5laHW7Tt81yDe19cWlVUNuWdJBQTicrX1qAtL+ZvcnMfjSADoHWXHBSWc5cR/ZUCWghnsz4vixinUWJDkD1Du2euvRUoZOucRPQwiQdhFEpa+lfGRPSgqd/G8BRu2KhhY+P6vn8dnVErj5utSL2EOiVwGmXJ3bK/sYQDiTTaON/s22wV53g5SsEdGpf161JKR0FFYa3Lobhb2dmKqhDdZdYxO/pi8VZMqySkt4uz2pdwG2HCoZ4QWBEBHRWiaz4DWGLoawuXmNE7IjqRAnIGI16x10ap67PfHdZEHWGwJic1hLcwMy0T7nkliSdWb73mEARVwgMmIBG+G68MEj0np53EmhEQgbBhmq0acBZSNQ8COiEso8XbPxl+EbHBE/hZK2dF+l4auGTD/U+HAQg4EfggstyrB1DXT9oUp9jNMAvP5EUSUA2rLWXNlV5Y57XgrY7TshqWR2xdhfIMts2oy4xnGLCyOwoDgIQ8CWgnURaBPz9QnXialnXKJ/WYGk6FgeBrARkgOQzBRRdp4XdeibbX9Shkm3zEqaStQ0SBwEI+BNQAyzjTKq7VhvpEv+rXtahSjgIZCEga1qyOJZTmdUIPmemK10vVGhNxX9k0Q6EQgACIrDj8kRDmfbNWVc2yZbNE9k5wUHAlYCU+r2ZFfr9ZnYR11iPT5gMftwtsz0B2UqQzQYcBCCQj4AW/t7ZzDRP39RY57z2PKYE8mXsHCW/JKMSy+SuCgru7wR09Kksk+WqJLQT4dp/fx0+CEAgEwGdhqo1Aj/NWJ6b6okjzewCmdKE2BkReERGxUVJNyuSRgNy2So/YWnieHMMuAsBCHgQUKdeu3F+m7E+Xe0I6OPqZh6RR8a4CMg4jkzUqgF50vLUMB3Qo6Mx1ejG/n02437X5zJMFaVUF10siDw6U6Whr5JYXSBcXlY6r+J1S4uW286oiFIcAg2SgIwKvSpjvbraCZDNgIcVWFCtY8nvsdRh6fJQ6gu1eWr7VLbUFqpNvOLADch1UlwlSlu9tFCvpLGZVYXb9r++PG/VKYXzfUgdupdm6gRsyy/u55uKWcf2x8tDYOar8dNP+b9k7Ng36dVrM9pR0YFF0tmm9w71miylqnOgNvMKY1W3cy8t431tJPBlye9iY4U9gHg/oOCXw1AL7pzi9ewB6BxRyEdAi6sftPj7daH6+1Nm9k/OydH5BFMok9q1oZGScznzySJOVqj0RTjkL/1VpdDxuRr+wqUR0Ar+EjYDVvOP//up6PZNUxeeHgEBfciVOlNFBot0YJmHu/9EGv963aY29cVDXUB5juVRlbL+VI/00P2fMLOzemgcMv5GYI+MiwOHrktzi5++DmU1Ejd9AjddnN3xgwJ1uxYipi4OlE6WGrnoo8yrjdXut7MPQe10CIWsTPVpd7prJrx7YelORoRwvgSu3MPWoq46wHNpHXbtxOnbyUaFPkA0hXfN5UmT+yympB69XN2u6YqDFl9Or14ez60juut/qkx1X4a+HrfcGnd3M7v58nQ7bVnDnK2ZLINqwVruMqMTVe+ZoFQ6HTF3HIcg/2dmdm8zUxvci1NPq/Spe17gZdyHQp1PbS5f8CwBL51ATvuKUwdvlXAyXqNdJ7dYzk0/f3nynY7BLTHtJCNV+gLWXPWbliaytcBMnV2ZIZ+Tu02BhXXirXnvLk4r/edUlt+37AB3YdX5messeh/HjxS0toFoawguL4HrmplWtM6pMM4trT/MoEI6SlYNq0YW9WWuRrfkHvUueaj5a1XEOkTrlhkWtGXAnCRSIy5vKVC2NXrT9gu3xFRFFx3J+YzSfK2kHG3xsIbHNEyTM0G5ZH+jj95SC7ZTC3o7M9N+31z5idx+2crGe6qTbQGtHXmymenrbUwLiDfp3/eWowUPNLPLFNjvnpoPXZ5XJ+13mcu3tglqV0KsG+N09CY9ir2nkbC7xkLqGu7BI97udZyZna9rwnmuMwHNx8YqMeHGxUo7aLo4rS5/pJnJoNfYFg531VHtR3/90o7CebtAG+gz6tzow6orl5jnZDAndsr2S5njEhPfvsJo6kTbN7O4/xwxWA0hSlFx/RDQscJ9FQrem4/9gS3VSQv2dOrj0If0S+jMUctFh1OolzSlqs5NTm6xnYAXZI5HzjR6yXY/Xl0LXtS78IpgaTl7tayoCO5LYIfl8G7pfOd9ecvsVVqoiRp/7WMmT07KQCfzqZMsM+ljdlqVnnNKIKYToPUjc9cxtdUyf+zibjzyYTrNIeH6JyBjS6VPHpt7RZAz/dpK18bdj4o5qmGS5TeNtmqaZIxO5ms13ZpL994RMR1QynhRrjR6yNU6vRumKtDYK22ZIj59KgSedyNwk5GPJHkUzCnI0Nx/m+1vZ2ZbaOsGUWsj3mtmd1wskNTRvWNyMuv76R47AdJN6egUylpKGn6S0pHUsK32+aZEoM9nNRR16TGVmpnElfUA4y1TKs/a7tbWeqbOne+zLhj7u7XlWofD7DyiOkLbOXMaDnr7lt0B0tGx2qnx1NePmpna8tZu7BaVHtI6xTxQgoC29HyZBmFUDaK2GKnh73pa5qHkt0t+a4vka5bHxpYoq6nv0LoPtSO5tgLLuqPesclJZ6W7U9le2qVz0HpR4G5mdmLGQitbze9amuvUXvFrmJmsxz3P6Z3aCtJm7+gmBeKePwGZbPVYVKqKRfNc0h3+8jDQlrXUIWiteO9ScfHMem4fWByxfm3/oplF4q0zGgV7RmSMpcPS5aHUE2rz1PbJZLXM0v8mYxmR7F0jOf0t2NsyReZDZnb7Nec/y+KTTHumFno1LIKLGzaBVznktXRF+8lxwybAfGx6vbauXpTxJBlSGrqTpbpfOJX5VRayTzN2pykTrff4SCZGstwY5bS1ZxVw6v8yv3u1LW+XCc3U9+h5NSy4PAQubmZayKeDUrTat9Pc0jJqOkviBIc8lxnMWCMheaggdRsBpgB86rZN9eNnFlttr7ctI3q+L5sHOUzI66MvuxW8guz0Aft5h7pxVV+itplqm8Xqg13/11YEbWnRYR7b3OEO71WDwhGl20i3u3/qxfCUetjfacgfmd387wTzyl5WAmWeGjdcAjKH27UO4bl27N4z8MXP5zezb2XQB61TudFwi0DrmKnN1Oimp9l9dcQ3OvXQPOZmVWg13BN7QMElnRRCVsZwfgS0FuSLEXkjM6ddpl2k5Nr3nFrJ68AY3HAJ6PCYnGuKUvVnas9rbcwrzEzbuIfo9JH2OYdyv5pvmuuegmXFep7pUDWdubGa1i7/q22/VF34ql+mPbsIXn1GX4ZtMuJZDu/V+cic8reao93/v1BLgx7adqlpgbZOX++r+tPlf01P4IZLQCuRu+RrzDNq8HT4jhoVLajSNKDqFB0pK9voey8to912sQNl9U/39Kf4PXWx1e6Fi6OHDzYzrVeSjfuclu1i0pYSRiaXHzHQKTLZhtDUcEr6mp7VSKU6nFNyl3OaLhUvHaXd6DSP6nGSko6A3TbfX4+AVmfqC7IpM9tc0z5ZnA+BC5qZjjhtw19hj12zwHNTrLSO4JgO71qN2zM3vYR7vRPQIt/UfeHq5L/fzHRM7L4LYzOyUnphh10K2+Doi1Wrx9V5UD2jDsLRI9pa9vWBrg9QJ0AHQq2W5dT/tfc9defKNp0ofV8jrB5bGWWNtZHNbZwyQiY/2ziPxX+/MjMpEy6dwAWWX1NdC+H9O0RBNsS7vq967kds/exAvuwj6uw9PtK0uMq0vua1TepmbbcxFUqW0qMh1XsthttfuuwUDPl0Qx3YIyt9Q3JnydQJeNGQEukUl/0c6knVl7dois8rHYRrb2pbJ5viVSXe9VdDd7h0Alqg893E/DiiQzQ0+tRlxGFVX6a0CKgDxtE8ok6mFo/KXocWb2lu8tuLacO3LuY7H2Bm/5y4w6RPEJqG1E4ZjVIM8WhaLZS+W5+AGt6dqxOgUaIpORk9+nBi/aw682VNUDSHtlqhtvlfPd+LNgnecE17H2UUqM17VsNqyoGV/xsgR94635qV/qu8t/2vCl3DvW2dx0rxg9q+lPAQyExgl0XnRutcDhnYMciy9TIk08LqBHwhsS1YrZu0gl6L6KbkLuFgWVFTtf/gdncAr+Gltk5De6uZ1vZ/zSvi0gjIQpaUoi37deHP1iE6qgBSF1z9sGPno0N0eQQCrQmcdjFNIKt4MufrtbJ7XRmMua75YBlmG4pTh0RHI8fEPTaM0jjWkxXX5YvHqLlG4YLTkFAs0HXhrhqkxXu0VWWdvNjrYzGHGU+lbEiZiPRYhFfll4ZzGxeZRCRLRzdXcrr+Xj3iPQSBQN8E1Bm489JOfS5b+bFlSLsmhnJqqj5GtZ4nNu4x4WRjJsVoWd+6svp+1XEx6d4U5i51oU9KFCjDDtsOZai/T36FT83oLu9djcec/9c+Ye8et7ZOdXUartuktDH3ntz15TwHgZ4I6AtVh+Y0GduK0XmPMLLHIXssQ3BaA6JFoB7pqmQ8cQgJc4qD2k6tmanS1uX3CfW4vClR2AF1YZF+D+M/VPaRsBuCqdLJYZErZTueDANpGL+LQlfPYBSoIbO5NAoC0n9NEcgGQaXPJX9lN2DPgZC6vtO2t4qfRlmGbiq5DfpUmz2aRggudfHFHYKkeI+2i1WZ0/W3jbGh+JhNP+S5nA5eWs03zeGnzrepM7kqt83/Woy60/SzkBROnIC2F2pnlqcp2NhypCkBmQDv2+lwHC/LtEq7Pi6GtPAxhe+dEutJGc0KLnUB2KWDpHiPtvzEKmRTOA1d49oT0D5gGQZpYpp6ra0NiKbYX8chblpcioPAFAhoa672tHsYgWlTvjWSNgSbAbIb0Sbe28IeNpGFwpdN5KJ1X8FppeQ2cJvuawV3G6c5jNR3dpl2aBPHKYbVlqSvJeb1Oj14jhMwLSBMnf/7L6e4IAYCQyGgkTXVedpmu64Mel+XbQ7Nx/fptKVYWyg90zaFM2O00yqFidrf4FJ7lzsGSXEebUFIibye/de4VxFqSUD2sXMZJtEXSttFoJsyJnV0SHOoOAhMkYC27GqI3nNofFNdrGm9vo/a1Q6FmEPJNqWjfk+2Y8Z+dog+lOppautXmx9c24dXwwdBkR7Z1F6V0eZ/zYsNZdtKZJJ7DSZDSV9OZL4uf7QYxbPxFyhNJax7X8x1nUTpHadeM5CXQ2CFwJUXRm48jlCPKU/qbOhY9z6dDJX9JLFeqKdVUxxadDlmV09PF39Ie5eH688EQZEeme6tP9/Wr1OkcHEEcn75y/JejoY2dX5L+qT9xDgITJmAyp72c6funImtf2W+OUd5j80jHS/vOQWiEyDH7GLzbV24kPZ1AWKvB0GRnvcmdgCeG/meuQc7+/KAkth8bBPuxRkrA/XMUy2l3W7umU/6Z0PgTMv1ASUOIpIVw7ZTvp4Z8eDEtqNex2kq4GKekSssq56WLv4Q3S4P158JgiI9qZbn/sGKUeQ75xZMi0Q8583q+a2Tz7rY+2+TB6l7oXUOOg4CcyKgI4tzlfl6+X+PmZ2uJ7AagXinYydAUwFjtRJYz5Mu/pCFXR6uPxMERXi0eCG1p6o9srj1BM6a4WCNKr9fXqDxV8q0q6B6Z5dfxRMHgbkRUP0qy6657QfoVLq+OgH6uPE4PbSqV8Y6FVDFv+tvKBtdBVTPBUERngsnVuxavSglz+U0vHURM9MiG51u2OdwV5c0akumjDxUeeP5K8Mkub/8qzTvlZiGj1WC+IXADAlc0cy+kliGttUdGqXrqxNwDYcPySp9Jy6OyNWZKGNzVfy7/ob0dhVQPRcERXi0fa96rsuvbFbncOqYaHvN6tyz/n91h6OOc8Rxm8wzm9lnE/muyxMxKLlq9mqJ6Th+GyzuQ2DiBHTcuhbqrivTHtfVCdDBRn24RzmmTebwx+ZS8y+k101QkLjek/pl9671ojvf2T9iyExDajqzfqhOC4E+41gg6jqhU/pKNv5iLCtk9Ti09cv291jn9oaqY8RrnARkUjfVuNam8vfBnjoBGo3UVMSmuLW5d4ORZW+btDWFDcltutnmWhAU4dGpV21kr4Z9QcQ72gRpG5/nZVz93ibe9bBq/D+dyHWVc/X/63to/JU2FW4ZIani0eVX9g9wEIDA/22L/XxiedpUBt/eU4dbppJ/7ZQuWUnNOb3srYeb8iPmXohPTOBNYYKgCM+zEzPrYRHviA1yTTPTl+KmtDXde2HBufBtadHBN5/skIamdK1eO7inQl2lOfW0wqEcb1qlh18I9ElAUwKvy1RXqO54WU8fR/s4pqlvg0dt9GO1vm77f3hX2wdXwwdBEZ5UBbxXxDtig3w8QXGk7KWHxVfTdUYz+0RCGlbzsf7/G3tu/JXW1I7NdVeB8f8sCaican2M7Onri7H60/+63qdxm9IZorRq1LPLh0+9fljnf0rpBC3zT9MQ6+LU5vpvzOw8PaShyyvbpKspbHhn080214KgCE/qHs5bRbwjJogqgTZpbAoroxh9dQLOYGYpHZim9FTX3jyQ3Q/vSMwjna2OmzYBrUKX5UiZF9fooGxUqI7RYlhtFYs950Rz5AqvqTSdRSFjYw8xs5svvpovNJDy4JmTt3AcOq/qjepXR72XdjIV7DUVoDVPY3AV766/IY1dBVTPBUERnvcnVurXjnhHTJC7J8ajSruGyUtvFdQ5CNrmVsXB81cnb5VOz7r80s6DlLTpzGzcdAjojHpN22nf9huWJ1vm+pJd1TuZoJWRnZeY2b0XnYTL9Nj598pRdZxymBFWnvRxJPd9E+uLKs8Vf+Xv0F0V366/IX1dBVTPBUERntQDLK4a8Y6YIDoSsop/6q8azVKLR9T4f9Qx7vW0v61gOmLySJVtPX5t/feMeQlhBk1Aploft9R5mW5tqwM5w5+wHC3QF69shozR6WTW/83AVSMqpU/c0/SG14dRjt1m3vqRqtshPm6CgsT1ntTV6l7nU6eeOLfKTMPV+kLJ6TTc6bntpZ4GreIt1YmJZfT8xIrp32NfRLjBEdjN2eRrXddz+b9uZk8zs6sMaJFwTMbuvJjqyLFDQB0LWSUt6fTlnmppttIPjTYN2VXx7Pob0tZVQPVcEBTh+UJipX7piHfEBLlhYjyqtNd/dciRVtrmcDK2kWofvx7Xul9zpqfKEelEmak7RvZLfD+P90PgCosjoX+aoXzWdT63/9jFItonmpkMjI3BaTeR19dzna0W55WeUtRW7XocuvqPGHjGdU1X9VxIXnWh628QFOFJNVbjNQKgr/UcxjE+kME8php/ye2aP5ue01DXEBt/qVLqCIDmBHHjIrCL87nvm3S/1D3t1LnrgMtZpSG5FhbrXI+STjs7fuRUX2qx5FBdqv6GdLkJChLXe1JXrnutAVAMdWhGatqbntccvQqTh9OIwmGZ4qlTvXJPW6Qw0JHDTXxjr+2Z8nKe7YWAFvfF5u/YwqlR0qiAOjlDdbk6AbcsnGCt//HQjy8PeLFnavpClrgJChLXe1KHsa+1XnTrO1L2XAdmqNevYbUUp8ZZ0wqp+dP0/PsyTlekpLn+bOouAH114cZDQPP+XvO3TTo/lGuycKnRrfMONGtkX0TD3568fl44vVoQ6GUjZai7iVLzJ6ifm6Agcb3n3YmK5d2T1CrY4xLjtI6fpjt0Ol8Xp8ZfX+jrZKdc11bMXGsVuqR13TNamJiSztusE8z1QRLYOzG/U3Slj2e1tVA7XWSQaGhOw+hHO+eHGuSS6wGuZGZ/dUiD1q0N0VhUqs4GnXMTFCSu98jIQsr7PC0BVrHc3cy+mxivdWnS6lqdX93GaU5ec/PrZKZc11qCvk7vasNAYVN78Ndp+0LC90pAc8Upuj3WZ3+7WB8gC3qpI4bemXcuM/uOc5483TuSW+S9xSn+OsV2aC5V30N63AQFies9qYXc8yyAeixlSerbTsqyylM96diDadT4p1rAW31/9X+fR3fWWcf6v5mYH147RmLjS7g0AqlrPio9H+vvTxajkfrA0UFYQ3EXcd6RISM7ntO42zjJPoPHtJLWdQ3Npep5SI+boCBxvefRiZW65s5yuV3NLPUAmnUsv7o84nZT3LUP/9BEPuve/5EMuxM2pSX1nobc9GW0Lj0x1/UFgxsPgdS6IUYnxhBGI1+y0jcUJ7sGqSdz1rnLPoBsmpRyMg9df39X/9VKRTjyPV3TUT0XXlNd6PobBEV4ZJyl63v0nPas53RqNHQsZEoc1z37jQ0HTajxlw3ydc+mXFfvVRYEx+S0UjolzZr7G+r2xjHlQ8m45rDNkaJDfT6rr9ZnDGiXjhbUevI4oKBi6XAfjw6MPs6G5FLzI6TFTVCQuN5z40RF0raM3E6WsfSeVC5Nzx9jZlrtXHdaGOM1V7X6Thn38NqSWI9zbr+2e66mpc3/WtiJGxeBHTIuyG2jO0MKq11KMow0BKf5ey826qB7nesSw0adqdS4K86XiHlZoTCp6QnRdBMUJK73aE4m5X3CMTDfAAAgAElEQVQ63avEStKzLw//SInrume1sEa7D+SUljclMln3Hm3lGWPjLy7aw78uXTHX1fHBjY/A3RLzPUY3xhbmTwsmjxnAfnSdfOq5OFkfQ6WmArQQW0f9pua9phOG4lLTEtLhJihIXO/RCvTUrRmXXC/e9Y7sWOtY0VQ+Tc/r6FEdlvHGTPI1j6j9vGN1/53IRUc148ZHQGs/XpGY903lTetJtBf9e2b2g6Vf/6fWRU3vynVNO3g0Otmn004Fz8ODtPuhlEutU5SvJ5qZtkgOwaXqWUiDm6AgcbNHjV/KO0saZjiTmX0qMb7r0qqe/bp7KdcV36FtKdqsESe9m2r6+LEnFcmVkRDQl6bOgWjTOOtrUqdyaphax/Ve38z0oaAGU1ML65zuab2JdozcyMw0AqGTQtUJ0f5v7dVPKYvezx5feBV9EzdNSWgk1iNtklPqvAStBfDIz/2boPRwLZV/iLKboCBxsyfVGJB6ciWdvqRzHJSRyr3peZ22qE7LmJ22Qf0isYK59ZgBEPe/EdCqax1RvbqAS0O5smT5qGVjmLOzq8W5l1tOSb3A+eu3qfzGXFMjpk5On+4BieWznk5ZOy3lXu4Qb+3oGoJhoDrDLv7AvMvD9WeCoEiPjsysP9/Wr0autNMq+lxH8bZN/7rwRw5oeColf/Q1ti6NsdcvlBIBnh0UAe3m0DGvWhiqtTMaIejTaW/8g8xMJ915fFHG6vRqONlU6YuFGkDPLcu3KpShWoMmWwSrLNv+PwQjY23jvBo+IF+90fb/ICjSc+fEDFChK7V4pJ4krV/IdTBPW+ar4bVWYShzU3VmXfw6xW81fW3+1zxdXxVjl/TyzHgJaPRBW+S01baNjnqFlbnsvsx6a42UpiQ80qKF0aXS4bHj6uABqGwq95AEN0FB4mZP6k4AxXePza/Idlc2+j1Xwqay1/MyN6zCOBX35sRKRSdO4iBQmoDqNU1P/ixRf9vWCYf3OO2n43Lbxndd+IcWyrArO8RZH6F9L8hcxzH2esAd+8C6cEFQpEfDRz9NzITnRr4rRzANSWpuch2Pkte1UGlKjb+2Rf4ykW1pe+M5dEwytfZENiM0B33NxTqU6y3/VOlWfllp031ZsRzLGQ+5eA1Frj4StJhQc8Wl6gLVA7Hmxr05pZ7vUjHSroxSo5iaLq3e2/U3l1n62PzpGu/qufCe6kLX3yCohSf1pDfZie/T5dy/H5sPR3U4aKhPZjHvVkMXm/514W4e86IBhJEOaSvo7RaLih5nZq9aDiUfmzC3rOkPrYjXLgrZ1lcldVszu+BAFi4NAHuxKGga6u7L/Finq57Xv2Rm5yiWur+/yHMq4Kl/F5vVt5dDPSPefbpU3QlxdxMUJG73/KdDBujLp0+nLUSvc0hHF/46YEjGiqbmtNK6C4/qGW0da3v6YimGOnDqLosRm+eZmY6K9tpKVaV9269GVjRX/azFtJE6SVMaOSqVh13eo46eVu3LBsG2PEq939dHgY7eTo27nlcH9p+6QG75jNaQneAQ5z4PHEvlHZC5CQoSt3u0lzT1vdor3LdTL/+VDmlpw0Jmivvo6edmramV1PlTrYcYilMlc8tFXqlTk3qyYRv9iA2r1dBqMJ65NMu6ab/8UJiOOR6aGnh8wuhObL6qDOTcGrkuD7Q1MzaOm8IdtO4FztdTT6ZVGkqNWDQlfRPDmHtBZkzgTWGCoBYe7fX+UaLC6Hn1rvt2Skupo0xlG7yvub7cnLUVaJOexdwraVmsiYfm7bUqXEZpUk8zjEmvZxjNwWpES6MD2v+Oy0NABoo+6aDrm/JeWxRLH4Ylgz4eo1qSIaM9uZ0WbbYxNtXEW7sX+rIJ0BSfNtcC3zYPNYUNglp6Xu1QCG7S8p25gksJdFRxEx+va1pU1PfK01z8JFeNZiqra+SM4BrZ6gBed7FHXfqsIczUNAzheY3EHLjce78m2VxOIKCRQ1mU87BPv05fXr8YcZBulnT6Il4XnzbXNU1Vwn3IIb7/UiKiDe9ow7MpbBDZdLPNtSCopeeODvCHsB+zSrY6AR72ppvY64himSydqtN8dOrXg+b0So4IyeKiDMJ42kZvyvu+r2mF+b3YZZCl6GmXRy5T49KbJ2eJ9XqhMpiWaupd8f51oTUqHscca4qvD5daL4Q4uwkKEuM8Oqlu1cxn27jo+aEt+kq1dLjK4BuFFsbE5VqeUPs5dAZl5rOEU6WtQp/z621VB4bwvzpY0u2pTkGV0J2md2io/kUO+t+kIxri1i6Tkk6dxaa4tL2mExBzO7VBqaN2Pyn84VExactzNXwlJzmzgqAOnlSjL0rUEzq8N/cjitMq8C7/a/HYuXJHtmf5+mrXXFoXPvVndJhLTifzwupk9Gn+tZ7evvxa2yA7HLI9gPMjoCOwUz+ImnRCHdWSq9W1mFQjlk1xaXNNDWsJi69vcIirpgBLuzYsm8KG+DbdbHMtCOrgub0DfH2Z9LHqdVtyH5mYtm8VWgyzLR25798zkZN0VYalcg3/a1uSvtBynd7YpqwNKaymbDRXy3ZCvxLyz06d4VU9UV1S8nhw2Z5YjUOX///dD+1aSVr02iVu9WdKrVmoJ6L+/i7+IKvLw/VngqAOHlkvSz35TXF5eId3l3hER4vWWcX6ZcxlDl9YWgzlsUVOCzC9nXRTIzmpQ4SxeT7WcOqAP2SxJUrb3HDpBNTh1G4fb32Qxb5STuuhZOsiNQ1fLBBh7XjRDpiUuGqatrRLia+eDc5NUJDYzpNq/EXx1xegFqAM0d2n5XYTDYfLaMwcXOrBUJXuXtYZ1k0XVty+nVgpVHGby6++Mm/onA9zFXcWM9Opp966I8uEpZzKkEf8dQpkbuexBkPbIEu6VLYhrm6CgsR2HlXeqXHQ8zqjeqhODV3MvnAV+qnP+Vd5pC1KMqeZmvey6+3lxD7VTHVqesb+vL40p7xd1UvXtsmRXfxPOJSPuj5pdb0WsZZwGgWQoan6+7v4tb02t7u2QzwfmDuSK/K7sKw/E8TVL3bxB0EJHo/erkYBhrYjoI5Ei8i0N7dpu5vMhGpfcGnjHfX4lfbv7VDopK8aYfFw93AyD9qlDE3tGdkRKL363EMHhiZDq9Q/7FROKh2TxT41ziWcTF9X7+36+/sC9bqmIlMPqJPxpZKuK8/quRDX6kLX3yAoweM1FPyShDiUelRTFTrNTSeG3Xq5QrdUgSyVxm3vUUcttcBJXyUjdaWwFrEN5XTHrmVwqM9pNED2EnDdCUi/PU6vq+uIdhyUcNoR4DGV9uACkU01TKfdQSUXo9fzs4s/IO3ycP2ZICjBoxXc33XoLWrfq45IxQ2bwEsd8lo6mLoFVFa8ShzSUi8vc/OrXOsMdlx3AjIC5rFVttI9LdwsZc9hX4eyLmNUud0dHOKpQ5FKuSovu/6GeHYVUD0XBCV61MurZKb86jAMDjZJzIyMj2tRT6oNbumH9kx3rcQ04vLQgW/t+/PyvAytCD/czA5b/r215tdKa91PPUQppbzFPKtpr/tl1Kk5iL7EYp2TTnSM4R0TRp3wEk7bD7X2ICZOm8Lo6OycTmsuUrf6PilnBFdkb2IVcy+Iiwm8KUwQlOiRongMCyuusiyHGx4BdczUm9+kT7H3um790/Y+rcWIfU/ucNJ5Ne7PWHzl/ZuZaVRCh6FoXrKN03YmbR2VURLtn9ZpmZo/9qh8vRhoSuA0bRJF2H8gcANHQ1Q6DfKK/yA93z8vdChvT8wXvSA5db2FToYt5VLLZIinm6AgsbtHX2Wp8dHzsn51se7R4MlMBLwsJOrrv8tuCe2x/pyTjnXVU9m9OHS56PNSBRZkqSOhE+i0WFKWNzX82zXuHs/pJLwpHmedqcicRKzy0SMfJEO7DEqsP7qMQ5x15kbuuMqeRQpbdXRKuZR46tng3AQFid09WvDyw8RMqNJzNAeYdM+IDE9e38z01VHlT8pvF8tbOv7Tcx61Tfw1D66DWfTF1fbL3jsr9H5Nw4ihx7qbNhyqsDJ0pfzAdSPgYUK9yotbdotC66c8tjTmXt8lnay4dPnVeodSrkv86s+EeNYvdvEHQU6e+ydmQj0Npea5nJI+WTFaxOTVsftVhy9INXil58kVz1eY2XV6OJY1VpH0RXU1M9PumdKHG8n6Wu4KPZbD2MJpF80PnOpJ2eIo0SnVzoN63dzF/8wCGdXVdoHWNWmrdynXhV/9mRDP+sUu/iDIyaMdAV91UJYqLTryEdcfAVUuHuduV/mpaaI2Tg1wycZNuqu5/NTtiW3S6BFWW5j2cTrIpcqrbb9anyAjLN5OC7q0HuLsEx4FlNVFj8W0yqMSdaS2g2pP/zad2HT/696K0iBPZXdTHNbd01bikm5dPGKvh7jGPrAuXBDk6NmjYyY0xVGVDOsBHDOnpSiveX/lrczNtjGWpBMCYywwNulN22ta3CjjN7JwOGan+Gs702cdy+Amlsoflfc27oKLxaS3WBjVepiZvWq5T15fxOsWPGrqSSMOOnfiHcsFlzq29uot9alNHEuE1ULPTWxj76nTWkJv3+IQ390zgxWHD7SMp3Sr9NktsXm7LlzAuC5A7PUgyNnzzpaZsCm+mvs9t3P8ELedgE768/pKUf7q5K5YpzUHqV8cm3SquvepRQN0kwILlGLT7RnuZmb2ZcdyWDFb/VU+bTpSVUPe2qf9MjP7vnN81AF5/2IL2COWUxIlGkKvPNIBTB5H7yo/1KHK7TxOCSxh8l3GwVSuV/W06X8tqi1xXsFq3jTFpc21IK/NQ01hgyBnjw7E8Ry61VyXDtnAlSGgxiN1X21d3w5pEW3NLXvqTj0elV/nlauDk3tlcotkZwmqrZv6Wj4+skKs+LT91dd73WCQtgtqaPojjotHY+KkjwVtOSt9uEvXzFNHNyZd28J8vGsEWjynPE21ZaDOWgmn7cJac9Bkur1iqe27Go3qw1Vx6Pob4txVQPVcEJTBo95e9R6PXym5MhaXl4CGVj2H3rV1Lnbbn7a8pR7vuUnXNJx80Aw7k5rDPTBzY6x806r052bOw035W7+nleu3LzQ8nlIi3+RUT5ZYlPm6xLiqQZbNmFJOB1tpdf9rFl/6OkdBv481M21t7NPV9bSLP8S9y8P1Z4KgDB4tIIsdiqnHaZNfp71hKTBDZi1FymKZdwMce+CP9vnn3Nqmef4r5UM3CslqJHKcV7+pzPZ9T8PsOixKC5SH6DRauulLNZafdq3kdh7nvlwrdyRHID82T9eFC0lcFyD2ehCUyXMRMzsxsde4mhbto9X8Gc6XgHrF3kPF74kcZs9xaEpdbw4Y+YIxz5zWUK4sMXqu76izHqpfxmh0zv0QnUZNUrlp1E47KHI6TcPKzHVKXPfKGcGRyE7hp2eDcxMUJPp7PK1fVemV2ceSpzf5UxmWRPXKNVRf8fX4/XHk2fKah3+j87ur+CtNJQ/5GFaubo7Nvzqa7654j+FXW75224ym+F2di+Gx7qWEGfWPJpZVbdWbu0stJ4Gfm6Ag0d+jCj7Hka0a0pWRGlwaAR1r7L3iXl+XsV9bXgdJrZYFHbZz/jQ0k39aw89e5zus8h/y/xqV3D9ydKqUEsi6Yyozbf/M7VJNvuewHZE7zd7yU/M5xMdNUJCYx6OtGR5nS6+mV8N6fa3kzEOqrFQdPJM6pLeaJ/pfh+PEuGs67zao4vIGhvxj8P8tjBbWilfFbk6/+jAZyu4iHSLlsRYg9w4I1bddp4/U8WIhd3pZC4U7tbAGQQU8l3VeXV6lXSey3bhA/Kf0Chnk0bx4xdDz94ORCzXVKTwuQxyeN4KV30PTJY3S/VeGvPDUq1yyjl3Zwthn3mghX2o6tco9t9MWui7xVJ2D68auzjswrF/s4g+CCnnu3lFxtqVNPdKnRTY8hZI62NeoB5/LUtz3Wtj697AstqoXjxos9XFETFt3vQ59Ws2bIf+vKTBNhfXtdOBUKift8sjtdBKmTvVsE1ctMOYkyf/LmTbcmsKG/G262eZaEFTQo4a6TRzbhJWtAA2l4ZoJyJpXqjGPdfmhA3Ri99dqJfA6OV2uaxrj3s1J5mpLAsqbOXYCpEOxW1ZbIm0V/EiHslFiWvSOLabvVOfIvgju/wh0qePqzwSO9Ytd/EFQQY/MdR7soOTr0qspgVsVTM8YXnX6pSGYdcxSr8tqYKxNeJl19u6E0Pj7auHeCfO8qbrU9/OP9kXZWprHriktcCzhbmBmGvXblGdfXCwC1/Qv7u8ENvGKuRckxQTeFCYIKuzRPv6PbVGcTfGOuSejQVrlPHenr35vG+yr/Ns0wN47Qhj2z6Ph98tcPld1aEj/a2dKX05rY1IXA2qOvpSTDQ8tJpalvR8tdxR9YzEa+NalJcahGmAqxafpPam6HmS6CQoSy3lknjTXXHTFRcYxHjnTFeE6eeu9BSrx/2yhMh4HilR5q18t+MPlI/DUAvpTz8+h+LWmqMQxu+ty7tBE7pqflyVW3DAJpOp5SJWboCCxrEcnhemgn9R0bHteZ1HPZafAGRar4B+fYW9/E+MntVAXbf/xNPWrrWtjOv2tBarBBNXugFT77016s+6atolpCk/be/U16WEcZ927tl3/Y4tpLe8Mu4tDnVhiHYB3uucib5vubbsfOG0LuO1+ENSjR8Z8dKb1trh63P/08lhaVWxTc9rPrC1APyvEUqdttXGPc4yX8lFbGXH5CYizeHuUv7qMo83s2Qv7INoZpDnidfvxNYSsve06TlrH/mp429u8eD1edb8sSV4gP+KTvEHTAKn2OWSGHTdMAnUd6+IPqerycP2ZIKhnj7aHfD5DJVNPa91/1PKM8ikMk4mdhmq1Cr+expx+NeZt3K6ONiB0hjcW/trQTw+r/NMRyqk6pSk/bTXUQtAUp07JTczsfzpsR2ubBq3K76OzmbJGSlMY6kTghkmgrQ6uhg+pWr3R9v8gaAAeHWTxSYdKpg0DLVbRitmxFRaNYFzNzF5U8GtIXFWxdFkg9WLHfB3Cfu0BFJfiUdDZ9V2+SqUzsvlw1UwxVtlVh9T7FMt6PdKHAZsUE9kaUcUNl0Bdt7r4Q8q6PFx/JggaiEcrSrV6vx7HEn4tmtFcp+zX99Hbj8Wv4UgN83+rB0ZamXy32IjWwmkuUtsEPfKRRX81sD14tdujTT7q4JgrFIqnzpnXSJjm7tvEMTasDk8q6XQ8dtfdAP9RMqK8qzWBWJ1bFy68cF2A2OtB0IA8GpbPZaY2houGmF+5ODf9dgWO14zBfnEze9By26S+pmLS4B1GTLoe4vFqpzhrimjInbOYvJxCGBmA2TbdpIV89+rpsJ2LmtnhTjpXL0damKijlEu6p3dIh0wbqzOEGy6Bul518YeUdXm4/kwQNEDP/R2/HOtpbuPXkOcRSzvpWoSU25SlOj9q8GWIRZ2Q73SoANqkLyaspkku1lE/ZIfB4+tflulkJhU3DAIqB09cdJJldrbSIXVOZfRFdhm0xbdPt8MyftKbKn4ev9pdU9Kpw9umM6NdE1cpGUHe1YlAqi6Gl7oJChKH5dFpcT90LsSpzGTTWkYvdHznvsvFSGq0d448i0DTHFpUdWUz09fUwxb/v2whR4uNZLcgNX6ez8toz04JKqEhe4/4HJgQBx7NS0BGvdQhOGXe13SSrmF7z62EOjNA9jVKOlnxfHNEOdIW21zrLEqmdw7vSq0TAyM3QUHi8DznMjPZ+E9Na6nntXVInRYNGdb/tEip7QEapeK8+h6NfMiAUsp2Sdl48Niu9eMNW8SGp63EaGgE1NHWlMSqjnf9/7U9JVDrk3TS5uqImo5Z16iL7H/gxkGgq+5Vz4VUVhe6/gZBA/doSE8rfbusQu7KZq7PqULRDoNUp4VIHgzvkRoRnp89AR1SpY65hz6qDio9ClDPQI0IXNLMLkfHuI5lVP5UPQyJdRMUJA7bo4bpGKeCnMpuis+/JnHIv9IeWejz2KnwicRRiCo+/ELgWo4jcC8FJwQSCKS2HeHVboKCxOF71AOWBTFGA3y+aKRDOtHrZo5Zr1PCUnVTz8/FfLMjekRtIHBPJ73UVkOt48FBoAuB1LoxvNNNUJA4Ho9WhcuiXyqDOT+vVdLPz7BtSHb6U7l+jq//8RTGEcX0VQ66Kd3u+9jgESEnqisEUuvGIM5NUJA4Lo/WBujY0lL271N5D+l5bS+6fIbs1mIkj8V/WPzLkDmINI0gehxKpe2xKYtkyYr5EkhtBwI5N0FB4jg9OkhEW85yWQFL5Tyk52Uo5A4ZKy8do5qaXu0v56S/cZbFMcT6Vg46Kh1nz/0Ycnt4cUytH0OK3AQFieP2yPDMK1gf0NgAH7c40GWfAvu13+FQueqEOBwEchKQLY/U+vMFOSOI7MkSSNW7AMZNUJA4DY+OD5Ulva62tFO5Dul5DXfqwKMSZkxl5CjV1sEvzey001BDUjFgAtpRlFpONZqGg0BbAql6F97nJihInJZHRoSe5rgHOJV3yedlO//OZqbz1Es57SRITSNbrErlFu+RYZ1UfeVoavSoLYFUnQvvcxMUJE7To4U/e5qZ9pWnMhvy81p8pymQq/eUjTqeOJWPzD/jIFCCwG0c9HWvEhHlHZMikFpHBhhugoLE6XtkResZTiuBU/l7PK+tfB9ZmB++j5MRnxQNkOnjlDRpSJWV1Sk5wLNtCOiwHZnoTtFZHSOOg0AbAin6pmeDcxMUJM7Ho4ZG84DPWdrsT2VZ8nnZA/+wme1nZjo3fAhOhlFSGTxhCAkhDrMi8OJEvdV2QBwE2hBIrSfDu9wEBYnz9WjhoBrUdw50zYAqGlVW2h+fckJfrhz22P6Xwy5BrvQidxoEbpfYAVBnfIgnIU4jd6aZCrd2203QNDl3TpX2oF/KzO67nFP/rJnpKNBU3rHP/2gxOnHYcqpCe5bP2Tkl5R58YSIfDcWeolx0eRME/kZARxn/NVF3LwpLCLQgENsOrAsXXrUuQOz1IAjPVgKyOqiCfgsze8DiJK7nLizpvd3MPmNmmrv+dWQlojl7HXH7VTP7mJlpDvFJZqbFRNcdSWPfBEscYvWuKdwhTUK5BoECBDS61qSTsddUJ+AgEEsgVq/WhQvvWRcg9noQhMeFgBYVndnM9FWh7UHVnwwU6br+pug0BJo6QrLvFMGQplEQUEc+ts5sCqcPAhwEYgk06VCba+E9bR5qChsE4YFAAgGdt96kX22uXSLh/TwKgRQC2hXURldXwz425eU8OzsCq/rT9v8ArO2Dq+GDIDwQSCBwx8QKVGse2P6XkAE8mkTggYn6+8ykt/Pw3AistsNt/w+82j64Gj4IwgOBBAL6AlrVrTb/vzvh3TwKgVQCeyfqrwxg4SAQS6BN3dgUNryn6Waba0EQHggkEHhtYgX69IR38ygEUgnodMw29eZq2NenRoDnZ0VgVX/a/h9gtX1wNXwQhAcCCQSOSKxAZUMAB4G+COjMjNW6sc3/6gDjIBBLoI1uNYUN72m62eZaEIQHAgkEvpNYgV414d08CoFUAqlTAC9JjQDPz4pAmza6KWyA1XSzzbUgCA8EOhLQ4r3ULYBDMWfcEQGPjZzAwxI7sAeMPP1EvyyBNm10U9gQ26abba4FQXgg0JHARRIrzz+YmSwv4iDQF4EDE3X4MX1FnPeOkkCbNropbEh0080214IgPBBoQUD7/h9tZkc6mFH9QYv3EhQCOQi8L7EDoCkEHARiCbRpo5vChvc03WxzLQjCA4EtBC5oZk9Zmj1uo2Pbwh615b3chkBOAprC+lliB0BmvHEQiCWwrU7cdj+8Z1vAbfeDIDwQaCBwajO7k5l90OFLf50ufqThvVyCQCkCuyc2/pVe61wPlRWZA8dBYBOBSme6/gbZXQVUzwVBeCBQI6AzCzSv+VOnyrHSt6bf99beixcCpQns46zjsmr55MXR3ecqnRDeNxoCTfVgm2shoW0eagobBOGBwPIQIw3z/8q5UmzSveqaDmLBQaAvAqkHAVV6vPr7u8XhX88xs136ShjvHSyBVV1p+39IWNsHV8MHQXhmTWAnM5M1vhMLNvyVLr551uRJfJ8EtPvkhMw6/1sz01kBOiEUBwERqOq+rr+BYlcB1XNBEJ5ZElAFuKeZ/dBBKSudavuLGdVZqt4gEn3ugnr/60UH+yFmtuMgUk4k+iTQto5cDR/ivnqj7f9BEJ7ZEZD1vc8UrADX6eazZ0eeBA+FwPl60P8vm9m1hgKAePRCYF1dGHs9RDr2gXXhgiA8syFwGjNTo/uXHiq/Jj287WzIk9ChEVBZ+FMP5eCvZvZqMzv70IAQnyIEmurBNtdCJNs81BQ2CMIzCwJXNLOv9lDhNemermmXwelmQZ5EDpVAn6Ngx5vZDYcKhnhlI7CuPoy9HiIW+8C6cEEQnkkT2MHMntDT18463dP1/SdNncSNgcC9e+4QazTgWdgPGIOquMVxU50Ycy9EJCbwpjBBEJ7JEjjb0pDPJj3o495bOQNgsjo3poTJ2NXRPXcCVP4+b2YXHhM44tqZQGp9G17sJihIxDMlApfNYLo3Vef0/MsWxlJOOSXQpGXUBC5ZyOjVtrKjLYnXHzVJIh9DYJsebLsf3rEt4Lb7QRCeyRGQWdI+9vWv0zktttKhKzeYHGkSNAUClxjI+hiVk/tOAShpWEtgXR0Zez0Ijn1gXbggCM+kCOh8c80trsv3Ete/b2aHmNnDl181p58UYRIzRQIaldrXzD7Xc9lR+TzAzLR2Bzc9Aqn1byDiJihIxDNmAjrZTBb9UvWiy/MyffpOM9PRqDKwgoPAmAnsZmb/bmYyFdzXSJqsZDJVNmYtao57l/q1/kyQWr/YxR8E4Rk9gVOY2YsKN/4artRX/q3NjC/80asQCVhDQAsFb2ZmWrj6x8Jl7FB2CKzJlfFe7tJW158JKa9f7OIPgvCMmoAaf5nU7aIDXZ45zswex5f+qHWGyGzYlWcAACAASURBVHcjcE4ze5CZfb1geXu3mcloEW4aBLrUufVnAoX6xS7+IAjPaAlo2P+gQpXRN83sLsxNjlZXiLgfAZ2jcXsz+2KhsncYIwF+mdezpC5tdf2ZEP36xS7+IAjPaAk8sUAF9F0zuxcHmYxWR4h4PgLqgGt6QPv4u9TBbZ7RKJ/ehxs3gTZ53hQ2pL7pZptrQRCeURLYL3Olo6NMH8qXxyh1g0iXJaBpOC0a/FnmMqlFvrhxE2jTRjeFDalvutnmWhCEZ3QEbpX5QB/t2b/A6KgQYQj0S+CsZvbCzNtwtVURN14CbdroprAh5U0321wLgvCMisBFzOxXmb40fm5mdxsVDSILgeERuJ6ZyRZGm/o4NqxO8txjeEkmRpEEYvN5XbjwmnUBYq8HQXhGQ0Db7b6UqWKRAZTzj4YEEYXAsAmcycxel6msaqpBtgpw4yMQ2z6vCxdSvC5A7PUgCM9oCBycqUI5kLn+0egAER0XAa0NyGE/4AgW5o5LEZaxjW2f14ULiV4XIPZ6EIRnFAQekKHx/wND/qPIeyI5bgLXNTNNr8XWzbHhnjluLLOMfWzergsXoK0LEHs9CMIzeAKXyvAV8WsO5xl8vhPB6RDQcb/fcO4E6MwP1gOMS0di2+d14UJq1wWIvR4E4Rk0AW0x+oxzxaE5xKsMOtVEDgLTI3D2DMaDZJlzp+mhmmyKYtvndeECmHUBYq8HQXgGTUCmR2PzNCbcDxamg/U1goMABMoTOJuZfcG5TOv0QNw4CMTU0ZvChFRuChRzLwjCM1gCWun7G8fK4hdmdtnBppaIQWAeBM7sPKqnrYFXnwe60acypm3eFCYA2BQo5l4QhGeQBGT28/2Ojb+ONb3aIFNKpCAwPwLnWCzAPcaxfH+FXQGjUKKYtnlTmJDITYFi7gVBeAZJ4LaOlYOO7mWx0CCzmUjNmMDFzEyjcjH1dUyYfWbMcixJj8nHTWFCOjcFirkXBOEZHAEt/FOPPiYfY8I8cHApJEIQgIAIXMvMtB03phxvC/NjMzsjWAdNYFsebrsfErct4Lb7QRCewRHY06lCkA7IeBCniA0ui4kQBAKB/R3L++OCVDxDJLCtXd52P6RpW8Bt94MgPIMicGoz0xG82/Iv5v7X+CIYVN4SGQg0EVAH/VCnMq9Fw7s0vYRrgyAQU29vChMSsSlQzL0gCM+gCGi4Pib/toX5vZlpjhEHAQgMn4AWBR7vVPb/a/jJnW0Mt9Xb2+4HcNsCbrsfBOEZDAF9/f/IqRJ4+GBSRUQgAIEYAlqou63ejrmvhYVniHkhYYoTiMm/TWFChDcFirkXBOEZDIG7O1UAMjSy42BSRUQgAIFYAm9wqgN0dghueARi2uZNYUKKNgWKuRcE4RkMgU87FH5t+bv8YFJERCAAgTYEdnbaGnisme3Q5sWELUIgpm3eFCZEclOgmHtBEJ5BELiCQ+OvfH/+IFJDJCAAga4EvNYByZYIblgEYtrmTWFCajYFirkXBOEZBIFXOHQAdMKfviBwEIDAeAnoy/2bDvXBu8aLYLIxj2mbN4UJYDYFirkXBOHpncBZzex3DgX+8b2nhAhAAAIeBO7hUB9oOvCcHpFBhhuBmLZ5U5gQkU2BYu4FQXh6J3Avh8KOFbDes5EIQMCNgEYBvuVQL+znFiMEeRCIaZs3hQlx2BQo5l4QhKd3Au9xKOiP7j0VRAACEPAkcE+HeuEznhFCVjKBmLZ5U5gQgU2BYu4FQXh6JXAmB1vgsiXO3H+v2cjLIeBO4JROdkF2d48ZArsSiGmbN4UJ790UKOZeEISnVwJ3dejlv6rXFPByCEAgF4GnO9QP++aKHHJbE4hpmzeFCS/cFCjmXhCEp1cChzgU8Cv2mgJeDgEI5CJwATP7a2Id8Y5ckUNuawIxbfOmMOGFmwLF3AuC8PRGQEN8JyYW7qN6iz0vhgAEShD4QGIdoQOCTlUiorxjK4GYtnlTmPCCTYFi7gVBeHojcJXEgq18flRvsefFEIBACQJ7O9QT1ykRUd6xlUBM27wpTHjBpkAx94IgPL0R8LD4xYl/vWUfL4ZAEQI63jd1GuBJRWLKS7YRiGmbN4UJ8jcFirkXBOHpjcCbEnv2R/cWc14MAQiUJJB6Tsh7S0aWd60lENM2bwoTBG8KFHMvCMLTG4HjEjsA9Op7yzpeDIGiBB6ZWFf8pGhsedk6AjFt86YwQe6mQDH3giA8vRDYLbFAK49v2EvMeSkEIFCagMd6oV1LR5r3nYRATNu8KUwQuClQzL0gCE8vBG6Z2AH4i5nt1EvMeSkEIFCawKkdDIbdonSked9JCMS0zZvCBIGbAsXcC4Lw9ELgQYkdgC/2EmteCgEI9EVAZn1j6vZ1YR7TV8R5byCwLm9ir/sLChLxlCTwgsTCrOdxEIDAfAgckFhnvHw+qAab0tiGfl24kLB1AWKvB0F4eiGQegDQPr3EmpdCAAJ9EdgzsQMgg0K4fgnEts/rwoXYrwsQez0IwtMLgW8mFmYWAPaSbbwUAr0RkDGf2Pq9KZzqHFy/BJrypc21EPs2DzWFDYLwFCdwCocFPRcsHmteCAEI9EngfIkdgN+b2cn6TADvTurAqR0PrqlRb3MtCMJTnMA5Egvyn8xsx+Kx5oUQgECfBHYwM5X9NvX8athz9pkA3p2Ud8rL4FYztu3/QRCe4gRSe/LfKR5jXggBCAyBgMp+27q+Hv5CQ0jEjONQz4su/oCuy8P1Z4IgPMUJXDKxEGMCuHiW8UIIDIKAyn69Hm/rv8wgUjHfSLTNr9Xwgdzqjbb/B0F4ihO4cmIh/mTxGPNCCEBgCARU9tvW9fXwVx1CImYch3pedPEHdF0erj8TBOEpTuC6iYX4/cVjzAshAIEhENBWvno93tZ/vSEkYsZxaJtfq+EDutUbbf8PgvAUJ3CzxEL8tuIx5oUQgMAQCByaWHeo7sH1R6BtO70aPsR89Ubb/4MgPMUJpJ4DQAegeJbxQggMgkBqB4DzAPrNxrbt9Gr4EPvVG23/D4LwFCfwr4m9+A8WjzEvhAAEhkDgQ4l1xx5DSMSM49C2nV4NH9Ct3mj7fxCEpziB6ycWYh0KgoMABOZH4LOJdYesCeL6I9C2nV4NH2K+eqPt/0EQnuIErp5YiL9WPMa8EAIQGAKBryfWHewC6DcX27bTq+FD7FdvtP0/CMJTnMDFEgvx94vHmBdCAAJDIHB8Yt1x4SEkYsZxaNtOr4YP6FZvtP0/CMJTnECqKeDfmdnJi8eaF0IAAn0SUJmXPf+2dX09/Nn6TADvTso75WNw9Uzt4g+C8BQnIJvef00syOctHmteCAEI9Ekg1YT4X8xMB5Hh+iPQpa2uPxNiXr/YxR8E4emFQOpQ3g16iTUvhQAE+iKgFfxd6vrqGaYO+8q5v7+3youuv0FSVwHVc0EQnl4IfCKxMO/bS6x5KQQg0BeB/RPrjMP7ijjvDQSq9rfrr7+gIBFPSQKvTyzMB5SMLO+CAAR6J3BgYp3xqt5TQAS6NvzVc4FgdaHrbxCEpxcCj08szB/pJda8FAIQ6IuAvuC71vd67jF9RZz3BgIp+adng3MTFCTiKUngtomFWauBT1MywrwLAhDojcBpHXYAyAQ5rl8Cbu22m6B+ecz27dqPm5qHOlUQBwEITJ+AFv2m1hcXmD6mwacwNQ9DAt0EBYl4ShLQdpzfJBbqJ5WMMO+CAAR6I/CUxLri19gO6S3v6i92a7fdBNVjh78ogdSDPY4oGlteBgEI9EXgU4kdgMP6ijjv/QcCbu22m6B/iB7/lCTwxMRC/Sczw7JXyRzjXRAoT0CWQ/+cWFc8rny0eWMDAbd2201QQyS5VIbAjRMLtXTgfmWiylsgAIGeCOznUE9gOKynzFt5rVu77SZoJYL8W47A6RxW9mpoEAcBCEyXQOoRwDo7RLsIcP0TcGu33QT1z2TWMfiAQ+/+IrMmSOIhMF0CqSeHqp14z3TxjC5lbu22m6DRIZxWhB/s0AFgN8C0dILUQKAi8FSH+kFTCLhhEHBrt90EDYPLbGOxu0MB/yFGgWarPyR8ugQ0bP+jxPpBp46ef7qIRpcyt3bbTdDoEE4vwp9LLOTSBQ4Hmp5ekKJ5E3iAQ73AGqFh6ZBbu+0maFh8ZhmbhzoU9O+Z2SlnSY9EQ2B6BE5lZjq+N7Wef+D00Iw6Ran5GRLvJihIxNMXgV3N7C8OhX2vvhLAeyEAAVcC93GoD2Q74FyusUJYKgG3dttNUGqKeN6FwLscCvy3GAVwyQuEQKBPAqc2s2871Adv7zMRvLuRgFu77SaoMZpcLE3gVg4FXjrx8NIR530QgIArAR3bm1q/6/mbucYKYR4EUvM1xMFNUJCIp08CO5qZ5vFT8/VEM9utz4TwbghAoDMBrdj/rUM98B0z26FzLHgwF4HU+j3Ey01QkIinbwIPcSj40ou39p0Q3g8BCHQioGH71Lpdz2sHAW54BFLzNqTITVCQiKdvAjuZ2a+cKgCG//rOTd4PgXYEbulU9k8wszO0ezWhCxFwa7fdBBVKOK+JI/A0p0pAxoF2iXsloSAAgZ4JaLX+j53Kvk4ZxQ2TgFu77SZomJxmG6uzLobvfulUEXzYzE4xW5IkHALjIKAy6nEmiNqEX5jZWcaR7FnG0q3ddhM0y2wYdqKf4NQBkI5wDviw85rYQUBneaTW59XzjwbnoAlU+dT1NySuq4DquSAIz+AIaC1Aqg3wKp9lYOj6g0shEYIABETgRk5GwFTej2fuf/BKVdXLXX9DArsKqJ4LgvAMksDejl8FmlK47CBTSaQgMF8ClzQzLdir6uTU33+bL8rRpDw1j0NC3QQFiXiGRODkZnakY+WgBUY6eRAHAQj0T0D7/fXFnlqPV8/rQDHVGbhhE6jyq+tvSF1XAdVzQRCewRK4kpnJnneVZ6m/MhW882BTS8QgMA8CZzezrzuWa03zXWUe6EafytQ6PABwExQk4hkigec6VhTSmc+a2dmGmFDiBIEZEFDj73H8d73+f9YMuE0lifV86+IPHLo8XH8mCMIzaAIy6HGscyfga2Z23kGnmshBYHoEZKLb88tf9fkxZna66aGabIrqbXAXfwDT5eH6M0EQnsETuLrzVID04AdmdunBp5wIQmAaBC7udNZHvQ7X0P81p4FnNqmo518XfwDV5eH6M0EQnlEQ8NwrXOnBzxcGSP5lFKknkhAYL4FrOa/2r8ovNj7GpxNV3nX9DSnuKqB6LgjCMwoCOi3wCOepAOnCH81MhxCdbBQUiCQExkNAZephZvanDOX2cE77G48i1GJatb9df4OorgKq54IgPKMhoBX8x2WoTKQTh5nZOUdDgohCYNgEtND2nZnKqrYP/tOwk0/s1hCo2t+uv0FsVwHVc0EQnlER0Jxfji8K6cV3mVMclS4Q2WESuLaZfT9T468RO60Jwo2TQNX+dv0Nqe4qoHouCMIzOgJ7ZqpcpBt/NbNXmdk5RkeFCEOgXwI6yOugZRmq6lnv3/v0m0TenkggVR/C690EBYl4xkTgqRk7AdItmSjdj9MEx6QSxLUnArLAdzcz+2nmMqlDwnDjJuDWbrsJGjfP2cZeC4xek7nCkY7JHPFNWSQ4Wz0j4esJqAzefPH3+QLl8JWUwfUZMaI7bu22m6ARwSOq/0hA54gfXKDyka4dtfzK0TtxEJgzAX3xq1PseVbHpvr8EFb8T0bdNuVzzL0AIibwpjBBEJ5REzilmb2rUCdA+vRVM7uvmZ1l1NSIPATaE5DO72NmsqS5qW71vKedBCrjuGkQSNWNQMFNUJCIZ6wEVEG8uWClJN37g5m93cxuSwU1VrUh3hEENOJ1veXC2N8WLmOHmtmpI+JIkPEQcGu33QSNhx0x3UBAhoJeV7iCqnRQi5+0HkG7E863IY7cgsAYCOio3r0Wx2e/tsDCvqoMrf6+mmH/MahK6ziu5nPb/8ML2z64Gj4IwjMZApqb1Mlgq3ld+n8dUPIyM9t3Yb3wBmamQ1CwNDgZNZtMQlRepJvS0fsvdfbbAyg/TzczxQ03PQKpdXEg4iYoSMQzFQKap/zzACqyuo5q+PQLZvY+M/ufZWWro46fbGYP5Q8GGXVAOiZdU6dUuierl9LF3w2sjMjAF/v8p1ILN6ejXid28QepXR6uPxME4ZkkgRv2OHxZ1zP8/Y/IkAfDz4OfLNcaTLIyIlGBQGpZ9BcUJOKZGoHzmNmnBvaVk1oAeH74jRl51C6PPsvamalVvWvTk1o2gmA3QUEinikS0CpiDX/KxG+qzvA8DNEBPx1QmfxvMzvVFCse0tRIILX8BKFugoJEPFMmcOPF/OIP6QTQCUIHBqEDOtFP03S4eRFwa7fdBM2L/6xTe+YCh5Wk6iXP+31hwnKYLLUQUccF4+ZHILVMBmJugoJEPHMhoC+P/+VLcBBfgqnlmOeH2cg35cs3Weg3lyp2bTqb9KLNtSC4zUNNYYMgPLMkIOuBOu3vl3QE6AigA1l14DeLGuaxWPWbZT27muimtrjNtSCvzUNNYYMgPLMmsIuZHbg07dukJ1wbzxcmeTWsvJK57Oeb2c6zrmFIfJ1AahkNstwEBYl45kxAJnxlKOWPfA1m/RpMLbc8P6xGvik/VIZeYmbnnXOFQtobCTTpS5trQWibh5rCBkF4IFAjoK8VDVeeQEeAjgA60EoHfmVmz1l0pHetlSe8EKgTaGqL21wLsto81BQ2CMIDgQYCOy1t+R9FI9CqEWgqa1wb/ld7Sh7JrPD9Fnv6VWZwENhEIEXP9GxwboKCRDwQaCZwpcW2pQOwI0BHgM5g0AHt43+emV2xuchwFQKNBNzabTdBjdHkIgROSkBno19nWfF9i8YgNAapZZHnxzFCoG18sqp5bTNTWcBBoC2B1LIe3ucmKEjEA4F2BHY3M508+Doz+y4dAjoEE9MB6fRrzey+ZnbBdkWD0BBoJODWbrsJaowmFyHQnoAOH7rpYkvhw8zsDQu/Djn5+cQahdRyx/PD+9r/mZkdaWavX+ruTRar+M/dXv15AgJbCaSW//ACN0FBIh4I5CGgxVGXNLNrmdltzGxvM3vI8vz3Ry8MpDyVPxhk1AHp2EOXOifdu/VSF6WTLNzLU+aR2kzArd12E9QcT65CAAIQgAAEIOBIwK3ddhPkmDhEQQACEIAABCDQTMCt3XYT1BxPrkIAAhCAAAQg4EjArd12E+SYOERBAAIQgAAEINBMwK3ddhPUHE+uQgACEIAABCDgSMCt3XYT5Jg4REEAAhCAAAQg0EzArd12E9QcT65CAAIQgAAEIOBIwK3ddhPkmDhEQQACEIAABCDQTMCt3XYT1BxPrkIAAhCAAAQg4EjArd12E+SYOERBAAIQgAAEINBMwK3ddhPUHE+uQgACEIAABCDgSMCt3XYT5Jg4REEAAhCAAAQg0EzArd12E9QcT65CAAIQgAAEIOBIwK3ddhPkmDhEQQACEIAABCDQTMCt3XYT1BxPrkIAAhCAAAQg4EjArd12E+SYOERBAAIQgAAEINBMwK3ddhPUHE+uQgACEIAABCDgSMCt3XYT5Jg4REEAAhCAAAQg0EzArd12E9QcT65CAAIQgAAEIOBIwK3ddhPkmDhEQQACEIAABCDQTMCt3XYT1BxPrkIAAhCAAAQg4EjArd12E+SYOERBAAIQgAAEINBMwK3ddhPUHE+uQgACEIAABCDgSMCt3XYT5Jg4REEAAhCAAAQg0EzArd12E9QcT65CAAIQgAAEIOBIwK3ddhPkmDhEQQACEIAABCDQTMCt3XYT1BxPrkIAAhCAAAQg4EjArd12E+SYOERBAAIQgAAEINBMwK3ddhPUHE+uQgACEIAABCDgSMCt3XYT5Jg4REEAAhCAAAQg0EzArd12E9QcT65CAAIQgAAEIOBIwK3ddhPkmDhEQQACEIAABCDQTMCt3XYT1BxPrkIAAhCAAAQg4EjArd12E+SYOERBAAIQgAAEINBMwK3ddhPUHE+uQgACEIAABCDgSMCt3XYT5Jg4REEAAhCAAAQg0EzArd12E9QcT65CAAIQgAAEIOBIwK3ddhPkmDhEQQACEIAABCDQTMCt3XYT1BxPrkIAAhCAAAQg4EjArd12E+SYOERBAAIQgAAEINBMwK3ddhPUHE+uQgACEIAABCDgSMCt3XYT5Jg4REEAAhCAAAQg0EzArd12E9QcT65CAAIQgAAEIOBIwK3ddhPkmDhEQQACEIAABCDQTMCt3XYT1BxPrkIAAhCAAAQg4EjArd12E+SYOERBAAIQgAAEINBMwK3ddhPUHE+uQgACEIAABCDgSMCt3XYT5Jg4REEAAhCAAAQg0EzArd12E9QcT65CAAIQgAAEIOBIwK3ddhPkmDhEQQACEIAABCDQTMCt3U4VxPNmMIABOoAOoAPowFh0IHQrxhJh4knhQgfQAXQAHUAH0nWADoClQ0QRYYgOoAPoADowNh2gA0AHgKkLdAAdQAfQgRnqAB2AGWb62HqpxJcvK3QAHUAH/HWADgAdAHr+6AA6gA6gAzPUAToAM8x0etL+PWmYwhQdQAfGpgN0AOgA0PNHB9ABdAAdmKEO0AGYYaaPrZdKfPmyQgfQAXTAXwfoANABoOePDqAD6AA6MEMdoAMww0ynJ+3fk4YpTNEBdGBsOkAHgA4APX90AB1AB9CBGeoAHYAZZvrYeqnEly8rdAAdQAf8dYAOAB0Aev7oADqADqADM9QBOgAzzHR60v49aZjCFB1AB8amA3QA6ADQ80cH0AF0AB2YoQ64dQCCIDwQgAAEIAABCGQnkDriECLoJihIxAMBCEAAAhCAQC4Cbu22m6BcKUUuBCAAAQhAAAKBgFu77SYoRA0PBCAAAQhAAAK5CLi1226CcqUUuRCAAAQgAAEIBAJu7baboBA1PBCAAAQgAAEI5CLg1m67CcqVUuRCAAIQgAAEIBAIuLXbboJC1PBAAAIQgAAEIJCLgFu77SYoV0qRCwEIQAACEIBAIODWbv8l0QrSyUOU8EAAAhCAAAQgkJOA2tyUDoDa/OB+lSjsDEESHghAAAIQgAAEchI4Y2Kb/Yt65I5LFHa+ujD8EIAABCAAAQhkI3CBxDb7e/WYfS1R2A3rwvBDAAIQgAAEIJCNwB6JbfZX6jE7LFHYI+vC8EMAAhCAAAQgkI3AYxLb7PfUY3ZAorAP1YXhhwAEIAABCEAgG4GPJrbZz63HbN9EYVpReK66QPwQgAAEIAABCLgTUFv758Q2+771WF0jUZi2IzyiLhA/BCAAAQhAAALuBB7l0F5frR6rU5nZiYlCf2xmp60LxQ8BCEAAAhCAgBuB05vZTxLb6l+b2Y6rMXpfolCNAjxhVSj/QwACEIAABCDgQuCpDu30u5pi8mAHwb83s0s1CecaBCAAAQhAAAKdCVzGzP7g0E7v3xSDc5tZqklgjQJ81cxkpQgHAQhAAAIQgEA6gZ3M7BsOjb8WD+6yLjqp9gAq28QfNDOtK8BBAAIQgAAEINCdwCnNzGOKXu3zuzdF404OPYyqEyBDA1qwgIMABCAAAQhAoD0BnbPj1firbb7DpijsYGbHOHYCPm9mu296IfcgAAEIQAACEDgJgQub2VGO7fG3zExt/EZ3H8cXqsehkwb3i3nxxlhxEwIQgAAEIDB9AmqkH2hm2q5Xjah7/O4Vg05z98c6v1iR1+LAu7E2ICYLCAMBCEAAAjMjcOpF23sPM/t6hvZXI/taSxDlbpkhAlUP5ucLs8EvNrPbmdl5omJDIAhAAAIQgMD0CKgNvP2iLXzpYqT8hIzt7k3bontnxshUnQH9aphDcxNH8gcDdAAdQAfQgRnogNo87yH+erta97+tbeOv8Ltl7pHUI4jfd64HnvBEB9ABdAAd0Ij7rl06AHpGwwZ/LTQSgLKirOgAOoAOoAPogI8OqO3WdH6S07nBZAgM0AF0AB1AB9CB8ejAM5Na/uXDpzCzQ+gE0AlCB9ABdAAdQAdGoQNv99x6fxozO5yMH0XG00MfTw+dvCKv0AF0wFsHPmlmp/P4+q/LOIuZfYpOAJ0AdAAdQAfQAXRgkDqgxv/M9Ybb069ehc4S9u6xIA+m6AA6gA6gA+hAdx3QYX46OyCrkzUhGS0go2CADqAD6AA6gA70rwMHmdmOWVv+FeF3LWjIAAXrX8HIA/IAHUAH0IFh6YCMCd15pW0u9u9FzewIRgMYDUEH0AF0AB1AB4rqwMfN7CLFWvs1LzrZ8pCfH5P5RTOfnviweuLkB/mBDqADJXTgZ8sTdk++pk3u5bJ2CTwe88F0AugIogPoADqADrjrgMz6PjbnKn+PnsMZzew/F/MS30QB3BWgRO+Sd/AVgw6gA+jAcHRAxwM/1MzUto7KXdXMXrA44/hYOgN0BtABdAAdQAfQgSgdOMbMDjCzK4+qxd8Q2QuY2b3MTNsVPmRmx6MIUYpAT3w4PXHygrxAB9ABbx34wbJNfKGZ7WVm59/Qjk7qlgwLndPM1Dm4PH+TYHBPx47d/dGJSejEnMv2vo7lYU/Kw2TKg9o8tX2nnVSLTmJmT+DDThXex8xMO0xwEBg7AcrE2HOQ+EMAAlsJ3N6p8f+Lmf3z1rcRAALjIHAZM/uzU9lQGcNBAAIQGBQBnRjptdhTc2E4CEyJgHTaY+74ezlOepsSaNICAQiUJ/A4pwpOe13PXj76vBECWQnITspPncqIyhoOAhCAwCAInMfMTnSq3LRoCgeBKRLQolaPUYDfmtn5pgiINEEAAuMj8Caniu3LpU+0Gh9qYjxiAqcws6OcyorKHA4CEIBArwSu7VSh6cvohr2mhJdDID+B6ziWlxvkjy5vgAAEINBMQF80X3Sq0N7S/AquQmByBKTrHlMBGjHbYXJ0SBAEIDAKAvs4VWS/N7PdR5FiIgmBdAK7Oq6ZURnEQQACEChKQKuaf+LUAXhC0ZjzMgj0SulOgAAABrxJREFUT+CJTmVHu2bO1n9yiAEEIDAnAjrkyWMY8/vsa56T2pDWJQGZgPWym/F8qEIAAhAoReDiZvYnpw7AHUtFmvdAYGAEpPsenWhZGbz0wNJGdCAAgYkS0GmOHhXXx7H3P1ENIVmxBD7iVJYOpyzFIiccBCDQlcBtnSos2fu/QtdI8BwEJkLgso7nBKhs4iAAAQhkISB7/9926gAclCWGCIXA+Ai8yKlMfZf1NOPLfGIMgbEQeKxTRfVLM9t5LIkmnhDITOCsZvYzp7L1mMxxRTwEIDBDArL3/xunSmq/GfIjyRDYRGB/p7KlcwJ22/Qi7kEAAhBoS+B/nCqor2Dvvy16ws+AgCz6eZ0TcPAMeJFECECgEIGrm9lfnToANyoUZ14DgbERuK5TGdMOnWuNLfHEFwIQGB4B2fv/glPFdMjwkkeMIDAoAm91Kmtf4pyAQeUrkYHAKAnc16lC+gP2/keZ/0S6LIHzm9nvnMrcv5eNOm+DAASmRODMjvb+nzQlMKQFAhkJqKx4GNrSzgLtMMBBAAIQaE3gAKeKSPb+T9/67TwAgXkS0DkB33Eqe8+bJ0JSDQEIpBC4mKO9/zunRIRnITBDAiozHqMAOifgUjPkR5IhAIEEAu91qoCOwEZ5Qi7w6FwJnMzMPupUBj84V4ikGwIQaE/gNk4VD/b+27PnCQhUBHROgMqQx0jArSuh/EIAAhBYR8DT3v+L172E6xCAQBSBlzh1AHROgNYW4CAAAQisJfBopwoHe/9rEXMDAtEEzmFmJziVyUdFv5WAEIDA7Aic29He/wNmR48EQyAPAZUlj2kAnRNw3jxRRCoEIDB2Am9wqmiw9z92TSD+QyKgcwKOdiqbrx9SwogLBCAwDAJXw97/MDKCWECggcD1nDoAGkm4ZoN8LkEAAjMlcHIzO9KpgnnbTBmSbAjkJnCoUxn9vJnpjA8cBCAAAbuPU8Uie/8XgicEIJCFwAXM7PdOZfXeWWKIUAhAYFQEPO39P2VUKSeyEBgfAZUxjwWBnBMwvrwnxhBwJ/BcpwrleDM7o3vsEAgBCNQJ6EyN45zK7HPqgvFDAALzIiB7/390qkzuMi90pBYCvRG4q1OZ/ZOZXbK3VPBiCECgVwLvcapIsPffazby8pkR0DkBhzuV3Q/MjB3JhQAEzOxWThWIbJVfEaIQgEBRApdzPCfglkVjzssgAIFeCZzKzL7p1AF4aa8p4eUQmC8BlT2PBYHHmNmp54uRlENgXgQe6VRx/MrMdpkXOlILgcEQ0DkBv3Aqy48YTKqICAQgkI3AuRzt/T8wWywRDAEIxBB4kFMH4EQz2zXmhYSBAATGS+DlThXG18zslOPFQMwhMAkCKoMqix5TAaobcBCAwEQJyJKYtv54VBZ7TJQRyYLA2AioLHqUadUN5x9b4okvBCAQR+CxThWFTP4exh8M0IHB6IDKpEcn4DFxVQmhIACBsRHwOvDHo6JBhk+FDUc4eurAp8dWqRFfCEBgOwHNFXp9JXhWOMiiAUMHhqMDOmxox+3VCSEgAIExEdDqfypaGKAD6MA2Hdh5TBUbcYUABLYT0OKebQWf+zBCB9CB3bZXJ4SAAATGROCsdADoAKED6ECEDpxpTBUbcYUABOII/Dii8PMFyBcgOjBfHfhhXFVCKAhAYGwEDqEDwBcgOoAObNCBN42tUiO+EIBAHIE7bSj4fPXN96uPvCfvKx24fVxVQigIQGBsBLS959t0AvgCRAfQgQYd+A7mvcdWpRNfCLQjwCgAX3vV1x6/6EJdB1Q34CAAgYkTeGND779eEeCnYUAH5qUDB0+8ziN5EIDAksBpzexjdAIYBkYH0IFlXXAaakcIQGA+BE5nZuwKmNdXHl/15PeqDrzFzPRBgIMABGZG4GRmtpeZ/YgvQb4E0YFZ6YDK/J4zq+9ILgQg0EBAowH3MbOPcGDQrBqB1a9B/p/2CIEOA/uwmd2br/6GWpBLEICA6dTAS5jZNRZzg9fjDwbowOh1QGVZZVplGwcBCEAAAhCAAAQgAAEIQAACEIAABCAAAQhAAAIQgAAEIAABCEAAAhCAAAQgAAEIQAACEIAABCAAAQhAAAIQgAAEIAABCEAAAhCAAAQgAAEIQAACEIAABCAAAQhAAAIQgAAEIAABCEAAAhCAAAQgAAEIQAACEIAABCAAAQhAAAIQgAAEIAABCEAAAhCAAAQgAAEIQAACEIAABCAAAQhAAAIQgAAEIAABCEAAAhCAAAQgAAEIQAACEIAABCAAAQhAAAIQgAAEIAABCEAAAhCAAATmRuD/AyMcWnjFz7ZeAAAAAElFTkSuQmCC;" vertex="1" parent="1">
          <mxGeometry x="872.75" y="349.75" width="74.5" height="74.5" as="geometry" />
        </mxCell>
        <mxCell id="jWsUyRXlON7tYup3zoa7-66" value="Ad Hoc Analysis" style="text;html=1;align=center;verticalAlign=middle;whiteSpace=wrap;rounded=0;" vertex="1" parent="1">
          <mxGeometry x="865" y="425" width="90" height="30" as="geometry" />
        </mxCell>
        <mxCell id="jWsUyRXlON7tYup3zoa7-67" value="" style="shape=image;verticalLabelPosition=bottom;labelBackgroundColor=default;verticalAlign=top;aspect=fixed;imageAspect=0;image=data:image/png,iVBORw0KGgoAAAANSUhEUgAAAgAAAAIACAYAAAD0eNT6AAAAAXNSR0IArs4c6QAAIABJREFUeAHtvQn4LUV17v1eNQyKyCBqEEwU1AS8z1VUwIggfiiKIEYcEqcYBwRREJQbk++KOBMVAREEFaeoCFEkiiioGHHIxQkZwyQqiAwCIiij+n37ld2cPn320NVrVVdV97ue55zd/727q6t+VV1VXbUGQCICIiACIiACIiACIiACIiACIiACIiACIiACIiACIiACIiACIiACIiACIiACIiACIiACIiACIiACIiACIiACIiACIiACIiACIiACIiACIiACIiACIiACIiACIiACIiACIiACIiACIiACIiACIiACIiACIiACIiACIiACIiACIiACIiACIiACIiACIiACIiACIiACIiACIiACIiACIiACIiACIiACIiACIiACIiACIiACIiACIiACIiACIiACIiACIiACIiACIiACIiACIiACIiACIiACIiACIiACIiACIiACIiACIiACIiACIiACIiACIiACIiACIiACIiACIiACIiACIiACIiACIiACIiACIiACIiACIiACIiACIiACIiACIiAC4yOwAYDtAewF4EgA3wBwJoCfALgWwG3Tf9dPvzsbwFcBHAHgNQCeMjlmGhIREAEREAEREIGMCaw5HbQPBnAugP/P4d8fAZwF4FAAuwDgPSQiIAIiIAIiIAIZENgGwCcA3Oww4C+bNPwGwDGT1YTtAPyPDMquLIiACIiACIjAqAjcE8DeAM7rYdCfNyngVsIeAFYfFXkVVgREQAREQAQSEFgNwKsA/DLhwN+cEFwBYD9tDyRoDbqlCIiACIjAKAj8HYBLMxr4mxMB5o16AhIREAEREAEREAEHAg8AcGLGA39zIsC8Psih3EpCBERABERABEZLgG/9NNlrDrK5/03TwmeOttZUcBEQAREQARHoSODuAA4qcOBvTkyOBkC9BYkIiIAIiIAIiMASAutOHfI0B9NS//4WAJZJIgIiIAIiIAIiMIfAQwBcNIA3/+Zk5RwAD5xTZn0tAiIgAiIgAqMm8BcAfjbAwb+aDLBsDxt1DavwIiACIiACItAgsBGASwY8+FeTgMtlIdCoef0pAiIgAiIwWgLrA7hwBIN/NQngdoB0Akbb3FVwERABERCBisAJIxr8q0kAFQNlHVC1AH2KgAiIgAiMjsATRjj4V5OAQ0ZX2yqwCIiACIiACEwJfLyHCcDVAD459de/I4CHAuC2A9/A+Y/L8VTO42+vBXDsJMjPVT3ki6GG5SxIj4IIiIAIiMAoCTCiXvVG7Pn568kgfziAxwC4WweyDPW71TSN6yLlkeWlx8CNO+RPl4iACIiACIhA0QR+5zy48m1/HwAMF+wl9wKwLwBG/fOcpFRpfd4ro0pHBERABERABEohcKPToHrHZDn/HQDWilhwpv1uALc75bmaAPDz6RHzraRFQAREQAREIDsCP3AYTP8bwGN7LNkWAC52yHd9AsCtkDV7LINuJQIiIAIiIAJJCbzFOJB+CcDaCUrAe3qHKObWhUQEREAEREAERkGA7n9v7jgJOAoAowamEt77Qx3zXn/7r45/AWD1VIXRfUVABERABESgbwJv6DCIHgOAmvqphXnwnATsnrpAur8IiIAIiIAI9EWAg+gHAyYBfPPvYtoXqzxcCfDaDqBuQQ4Tm1islK4IiIAIiIAIrEJgj4kjnhsWTAT4216rXJXHF9QJ8FIMpHdEiQiIgAiIgAiMigAH0lcBOB4ALQS+B+A4AK8sIIAOrQM8TAS5pSARAREQAREQAREoiMB7FqxgVMp+yz650iGTwIIqXVkVAREQAREQgXtPViuudJgEyDGQ2pIIiIAIiIAIFEbg9Q4TAK4kSERABERABERABAoiQJfB1gBCZxZUXmVVBERABERABERgSuAI4yrAHwDcVzRFQAREQAREYCgEHgHgUADnAvjt9B+P+R1/G4psbZwAUFHwyUOBoXKIgAiIgAiMl8BqAPhWzDfbeVrwvwdw+CSqH88tXejM55oFZZ3HoP79q0uHoPyLgAiIgAiMmwAH9K8HDIZfG8gkgP4L6gN66PH7xt1sVHoREAEREIHSCXTZDx/C4LevcQJwSukVr/yLgAiIgAiMlwD39bm0H/r2y2s2LxzbTh3KXed0VuHlV/ZFQAREQARGTIDKffVBLeT4vYVze6ih7OR0aeHlV/ZFQAREQARGTOA8wyB4TuHcaMYXMuFpnvurwsuv7IuACIiACIyYwE2GQfDGwrmtbig7JwO3Fl5+ZV8EREAERGDEBG4zDoIlmwRaJwBkJxEBERABERCBIglYXeKuV2Sp78y0dQvg2oLLrqyLgAiIgAiMnMDPjSsAmxbMz6oE+NOCy66si4AIiIAIjJyARQmQ++BPLZif1QywdCXIgqtOWRcBERABEbASONW4ArCPNQMJr7c6Avpywrzr1iIgAiIgAiJgItDFC2DdHO5Y093TXny8cfIzBG+IaWtAdxcBERABEUhG4LXGQfBqAAysU5p4BAN6TWmFVn5FQAREQAREoCLwNOMEgKsBW1aJFfT5OIdy71hQeZVVERABERABEViJAM34FoUAri/3zztmiODS5EjjBIDM1imt0MqvCIiACIiACNQJMKjNvMG9zff0JXCveoKZH68FwOr/4EeZl1HZEwEREAEREIGlBKjM1magX3QONepLkf0dyssgShIREAEREAERKJrArg4D4hUA+Gadu9wbwJUO5d0594IqfyIgAiIgAiKwjMAaAH7tMCi+a9mNMvidIYwXrWS0+e16ACXHQMigGpQFERABERCBXAgc4zAw3g5gi1wKNCMfjwZwh0M5PzwjbX0lAiIgAiIgAkUS2MFhYOTb88UA1s6QwH0AXOJURrKSiIAIiIAIiMAgCNwdwEVOA+SJAJheLnKPycrEF5zKdn6hjo9yqQvlQwREQAREIEMCr3QaJLkS8MFMBkp6/OOSfZu9/TbnvDzDelOWREAEREAERMBEYHUAv3QcLD8GgG/fqYSrEEc7loduj6kwKREBERABERCBwRHwsJGvv0lzOyCFTgD3/L2W/avyMG6CRAREQAREQAQGSYCrAF7KctXAScXAPq0DqO3vXYYLAfzZIGtchRIBERABERCBKYFnOC6bV5MAmt8dFnk1gO6IDwRwW4T8y/GPHg8REAEREIFREDg5wiDKyQC98L3O2WsgPRC+HsBVkfL8xVHUuAopAiIgAiIgAgAeCODaSAMqJwIMxvN+AFt3tBagdj9D+h4BgJ75qpUG789rADxALUIEREAEREAExkTgmREH1vpAzUH2OAAMKPQ0AA8HsP7U3S5d7vKY3/G3/QAcD4DX1NOIdUwGEhEQAREoksD9ADx70lm+adKJHgvghwAunb410XUr//ENit/xt08DOADAbgB4rWTcBD7Q00AbawC3pMsVCokIiIAIFEXgMRNlKwY9OWcymP/R0IHz2rMBHAyAaUrGR4Bv4F83tCHLAJzy2q8m9mEwvpamEouACHQmwDCnVISiq9JYHed5UwUu3ksyHgLrAGDdx2pXuaV7wcRiYd3xVK9KKgIiUCqB9SZKVG+OrAjV7KCpwEVzK3WSpbaa8HxTWa/ZDob696kdFRPDqeoKERABEehAgFrQLwZA96SpOmJOBPYBcLcO+dcl5RBgWzspYTtL0b5pqigRAREQgewIbArg2xl1yN8CsEl2lJQhLwKvyqit9TUZoDMhehSUiIAIiEA2BP528tb96ww75N8AeF42lJQRLwJ/BeB3Gba3PiYCdGEsfRevlqR0REAEOhPgMju18fvo+Cz3eLf2TzvXcW4X0vf99wtoc5b2uuzaj+RWKcqPCIjAuAgwpCo7omWdVS6/f1KBUwbRQN9WUJuL2fb/fhC1qUKIgAgUR4BvYSUqYNF/uqKnFdfc7srw3wD4vSYAf5p0c8vtL+8iowMREAER6IEAta8/VnAn/ClZCPTQSvxvwah6FxXc7mKsBpyhCa1/Q1OKIiAC8wmUsOe/rLP91/nF0y+ZEjhGg//M7ba3ZFpfypYIiMDACDx3IJ0w3Qk/a2B1M+Ti0Mpk2aSulN/pFfNEx/JwS2TbIVe+yiYCIpCeAG3qb3DsuFJ32NxDfUh6rMrBEgIM/nRV4e3ulmm0wB2m1ihUoP2OY5kun0YnXIJSP4uACIhAOAHu++fk5Mdr8vBNmQeGN4Yer2C7O9lxoPRqN8vS4QrTWQBofvpkAGvOYEYFPs8J9Wdn3ENfiYAIiICZwEsL7ISXddLV73RdLMmTQE7e/v4wCTp10/Q5uBXArwD8ZBqumn76D5+4wN4TwPYA7tsSJ51UVe3Q4/MVLe+r00RABESgFQEG9mFn59FBNdOgp75PA3g5gMcC2GCq1UxTPR7zO3ZqxwK4MVIeuLx8n1YkdFKfBB7u7O3PEoKa7ZaupWOIpy8Nekf86xiZVJoiIALjJMCofs2B2/r3hQC4qnDPAKQ892WRTMHeGJAPnRqfgLe3P2713G5sx3wOYshaAPg8WJ+p6vofA1g9RkaVpgiIwLgIrO0c0vfmyTIqI5pRCaqrcHDYHwAVq6pOz/p5LQB2xJI8CLzVsW6vAfASh/S2i4iGAX4Y6MfajqvrD42YVyUtAiIwEgKvd+yU6MTlEY7cGAv+Ssf87eeYNyXVnYC3t79dp8p41eDY5ZNL67Hfqj2fNW537NS9CnSlCIiACAC0We7SYTav+dF0T9+b6UYTe/6znfJ4jnfmlF4wAUa5o2Jds/10/fvD0xz80JgmlfxiCwNrnWLMZ53T1QAeEDvTSl8ERGCYBB7j1BnxzZ8KfbFkY8eVgEfFyqTSbUXA09vfJdNtHSqxUoO/PjiGHr+hVe7tJ3HA5sAdmr9553NCQVNKiQiIgAgEEXivQ0fEPX/PZf95BXgcAJpmzesI237/rnk30PfRCXh6+7tj8jbNNkGhx8e29T/vvC2nafXxwaV7q8VCvRzcWpCIgAiIQBABLonXO5Iux1T460sOcMjvmX1lVvdZiQDffD1NTev+8d9vbBf0GHn3lXIb/w8q8XV53mZdQ+VCKhlKREAERKAVAbpftb6F0LTJou3fKqO1k6jFb1UK5FJxWycutVvr0EDA29vf9xoR8qx6LPTb37dQ4ZDmfLMG9C7f8VmUlUvftaj7iUChBJ7t0PnQzr9voSe2Lh1k/RoFCeq31jy9/VFbnw6EKtnQoT3sXSXW8ycd+rA89bZpOabDIYkIiIAILCVwoLHjoYe/ECc/SzPU8gTGjLd6DJRToJawHU77K+dBbo9Gnl5obMcccPvQYWlk+64/d3fIf33S8Py7UtaBCIiACMwhQPe89Y4j9JjXp5LPGPP+yVQZH9l9vb39fWmGxrvVqoBuolNr0TPIT+jzN+98Bh9iECKJCIiACMwl8ANjp0Pf/qnE+tbEPWRJfALe3v5m2bz/zNiOGYMitaw7cZt9mbEc9QkBwxD3qZuTmp/uLwIiEEjA2nEyiE8qoYfAeocXenxpqoyP6L7e3v6os9KUTYztgO0m5US2Xp4nAPi9Q3mqZyFWXIN6nnUsAiJQKAH6xq86iy6fKTXpacHQJc/VNTRHk8QjQG9/dNJT8bZ+Vt7+mjlmFElr2pxE5CI0bbSWp7qek4ltcymY8iECIpAXAWtgktUSFocmVFVH1+WTDoUk8Qh4hr+l22BOKGYJl++71H91zc9nJZrwOy7bf9tYpqps/LwcwPoJy6Nbi4AIZEqAntTqnUXocckTAJZdEocAA/OEtqV559e9/TVzS8U9q08IKhDmJnR7fb0jw8/lVkDlRwREID0BqyldyVsAtL1OrfmdvgX45yCmt79mbmm6N2/i0Pb7FzQTzeTv5zmUrc6ASrMSERABEbiLwBXGTqZP3+l3ZXp6YFUCZOdIrevDpvukfbuBbZZnCH/H9vbXZETnPfVBrssxnQjlKp7bKJzw0umQRAREQAT+ROD7xg6UClip5JXGvDcHC9qCHwXgKQ0Xs6nKV+J9Y3r7m8WD7nub9RjyN90H5yx060v3viFlWnQu3Q5Td0YiAiIgAjjB2LmktJ8+3pj3RR3ldRNHKh8DsAuANdROWhGga15Pl7Z097xIuGLDAD6L6nHZbwwglLswwI9VWbfOgQGIJCIgAiIAq5OWmxIFH6ErYN673rHFOuag9kUAL16giT72pkTN9TMc6+MrLfQzuP1krXOGJi5BGOrXWtbqegb/4sRWIgIiMHICz3HoWF6WgKHVC2DVGYZ+3gzg8xP7dvqeXydBuXO9pXUiWa+HayZbMbO8/TXL/k/GtsuIkOs1E830b+pWnGIsb53x1S0ZZ4pD2RIBEfAg8ECHTuWinvfMaXpIu/B6h5bimMuyX556kdvAozIKTcPb298zW3KwDoh0g12ScFLEgdurrZPf3UoCoLyKgAj4E7jAoVPZ3z9bc1P8Z4f8enWiVTr0uHYagL0AcFI1FunL21+TJxXZrPoG72omWsDfOwHgEn7V7qyf3FqQiIAIjJjAwQ4dyi0AaJYXW/i2SQ9+1o4v9vXnTUAw1PLDYgNJnL6nmdoib3/NYm7n0Aae2ky0kL+pxOfVfm+frGJtVUi5lU0REIEIBDzs6dkh0SMbPZjFEtprW/0WeHWcIelUk4HNYoFJlK6ntz/ux4f4rGeQm5A6aJ7L7Rua2JUoXP0401j+Oo+LpdxaYjNQnkXAhwAVjLiPX+8Uuh6fDWAjn2ytlAonFuc45bFr2Tyu42SAwV4euVLpyvvD29sflQhD5FvGtsDrSxY69LFugdTbM1dyJCIgAiMlsJ+xQ613JoyyF/I2twz54xz8vdfzl8sxQzHTC+E2LUzeljHq83dOGE9ybC9UxvuzgALQBNRqF8/tmdLF2xLm+aUDUf5FQAS6EVgXwA2OnTr36Q8AwM66q1Dbnwp/Jez5WycVjNjGyQD3tnN3Sdy3t79m++HevZU3OQ9BPuvAomLJ5/8vhwBFZRABEQgn4GnLXXUq1AugR7eQiQDP5dvNpY6dW5WfEj5p6nV0pi6J+/b2N6sVU3vfUo9cOh+KO1xO3BnPwsKjfu13ANCpk0QERGBkBNiZcPm+3iF4HdNr32cmS/n030+t4/sB4Bs+//GY3+0xCVZyXI8e/rzKFjMdhoSlS+JnZOCSmMv01tgRdVZf6rj1wS2Dejqhx7R/H5Jwu41mqKEc5p1PHRWJCIjACAl4B9iZ18no+/AOm14IK5fEaydom29zHGQ40Wzj7a9ZTHpftA529CA4NOGg7fVM0SJj+6EBUnlEQASWE6BnMKuGtVdH5JkOy0SztY8D4Fu1Z9op0qpcEr+oJ5fEqbz9NVssffdbeT+2megA/uayPZfvrWyq67mtUIqb5AFUn4ogAvkQ2ATAbx07k6pTSfV5I4CH1PByKXtHAB8EQL/zqfLldd/KJTFDM8dwSZzK21+tyu46PNxYX4wemLuS5V2FDTygAp81OmK9TVLBUCICIjBCAn9n7GjrHUnq4+ctqD+ueNAMjxr41MRPnVfr/bl8++3JQLCPo0viVN7+ZlXb+cY6YiCnIcuzjXya7Y+TSokIiMAICbzbuTNpdi59/H1EQL3Rvp1eEVnuHIINWfnQZ/x3J6s59Pf+4AAO9VMZmMeaj+p67t1zK6Gr/LmDH/y9u968oOs8J2y0mKDTIYkIiMDICHBAPMpxAKgGgj4/fzi1NOhSdZtPLqLDGKvWeZ/lXXSvUJfEtM64yrH+rdrlL3DIC+t06EIzWo8AX1VbogfONYcOTeUTARFYlQCXyP/NoeOtOpMUn6FuZlelcKcOAZfVubzuGY0tBQ/ekysci7wQenv740QsxNvfrDo4xtgO6V+B5RqDbOHgLbHeNhmASCICIjBCAtQwpg1/vUMo6di69NyscioUcln9vwY0GaBzHW5/VANkam9/Teb8+6fGNvjpWYkO+LvXGXnVn3FOehmKWCICIjBCAhwY3jj5RyWzesdQynFIqNmQ6n0ggNdMXPh+w8E+PQeWVIQ80jnQDCcTVuGky8rn5dZMFHY9n1k6PbJyq67nCkoX3w2FYVN2RUAE5hGgH/brHDuVqnPp45NLyDFl/Yn74hdPnfVYg9X0waOPe3yltqpgYU9tdGt+uypCWvKd+lrqcdAdt5Vddf2pk2iW3BaUiIAIjJQA/QRwL7zqFEr6pCOZPoRulTkZOBEAnfaUxMgrr129/c2qHy7fW/LF7YOxCpfuPfVWuP0lEQERGDEBvgXQd3+s2AGWzn7RtZ6DUtvqXwvAc0cY54AmhB7CpWzrW2zs1R+PcsZMg0p8i56LkN+4uvXomJlV2iIgAmUQuM/E4cyHHDuXkI6o67knOy1Ld6mhNQbmknheHXgOuDTdm3eftt/ThHDMwuiHZzpwrHhfCIATW4kIiMDICdA8ruoYSvn0UEyzVnvlkpihf6lgVQq7ZfmkG+m662UrJypZLrvnot+5/E0nQmMXOvShY59FrEJ+o8MhiQiIwMgJfMqxU2l2QHT9ShO1LSfbDXs53ocdIWPb5yL0T//ESQCW9w3EJTFNL08D8GoHl8R039tsFyF/0wGS5E4CHsqUdfZ0GS4RAREYMYFLjB00B+OfAzhjuk9O73u7Abh/gyn3grl8X++ALMeMbW91TtPIosufLCdt8jnxGYJLYpqO0iUx7dJDNfE5MbIGuGEAIckKAgzyY3lu6tfeAIBBiCQiIAIjJEDTN6uGMU0L24q3e1oPL4Ft8971vDG7JGbo3vqA0+W4L8uPrvXb93XrAPiZA9eqLjhxz3Ei3TdX3U8ERkeAJkZVR9Dlk5MHTiJCZFfjPev55NvpdiE3T3wu99bH5JL4n4x1za0IxbVftdE+wdlxlTXOw6o51DciIALZE+ByfX1ADT2+uGMJPSOeXQpg7Y75SHnZX9QmA6V6aKy3F9rqN+MTWD3ZcZtHMpsAB+06f8sx29/2s2+jb0VABIZK4EvGTqSrf/Z7O++Pe5qtpahruiSmwt1QXBJfBoC261atdepRSGYTYIwPT4derDOttsxmrW9FYHAEqKxmdQTE5eyuwtjyXOK1vLnUr31O14xkdh07YbkkvrNd7JhZ3eSWnY2dXXt/LrcCKj8iIAJxCNAlcH0A7XJMbXeLvM0hD1W+OZkZmr04Fb44sfnERAv/JkdWFbOcP+mx7l6WxjWSa5/t3C5oaigRAREYOAHaAFsGgNsBrGlkRO3jHxjzUS9DSi+BRhRLL2ckN5pt1cs75OPTlxLRCRUBT50abtvQ6ZBEBERgwAQOMQ4mXgpamzq/3ebgJTBGs6Gew5AH/GbZqKAqaUeAKyUXOLaPcxwm9+1yrrNEQASSELAqEDHuvJcM2UugByMG5mkOkEP/+90ANvCAN5I0GODHM4w1lTglIiACAyTApXdrmNt/cORChcSTHAe5HwJYzTF/KZPydp5U0sSB5mmcqFLZdKOUlVDIvRnq16t+6eNjl0LKrWyKgAgEEODbgrWj8N4n9B7oSvASuKzKvCdG1jpPfT3jAnBr4GHLwI30d+/2cs0AFWtH2jRUbBFYQWAP4wTgNwDutiI5tyO6ffUaZGhiSFPDkmVPRx5U7vrXiVUBB1EvxinT+RGA/1cKa6s0byqLekanpDOnGM/6KhnXFyIgAv0QsGoNfz1iNq15qw9KDMZDp0MlCqMdWh3p1FlwMlHJX00HT26V1M8p9fgsADRfk0/7O2uYLr6tMT7qbYFbCxIREIGBEDjX2PG/MyIHeQm8cyD7nrGO6h04PT5yeXiWMMIfO3hG/CvdJTGZKbrdnbVstfKptx8qF3LbUCICIlA4AQ6w1o6eWukx5fHOXgJLiyhH/YV6B2w55j4ul4XbSOWS+DRn/pb8h17LmAQsx9hldQBnOrajCwGsNXaoKr8IlE7gSQ6dwoY9QBirl0BvF8n0FNdFSnZJ/JUuBR7gNQ919rHB7TmJCIhAwQSsIVov76nsY/QSyNWZSxwmaNVb84ed6oouiV8E4EQH89Eqb7E/d3Aqe+nJUDfCkzU9iEpEQAQKJcCAH5YOoc+AIVRW81SEy91LIAdsS93Ur+VEIsaSLdN8LoDPOL9d1vPucfxvhT6fMbL9Wcd2RXfU0rOIUUtKUwR6IPALY2fwv3vIY/0Wnl4CbwGweT3xjI53NdZLfdC8A8DjeijbGlNnMUc7m57Vy9L1+OIeyl/KLbiC8zPH9nWGLC5KqXrlUwRWEODefdcOtbpu+xXJ9XJE7XUG+anub/1kDIPczMWopGcNzVzn8pZeamblm9A5Tz0PqY+5ctRF7jsJULXzZHXjdVMPhE8HQH2I0uUJzoqdKdpY6XWg/ItAUgJWn/K0HkhhV88wv54DZE5eAr0nODSFSzHBeXlmE4BfBz5ptBzgtsGtM8pBp1L0fcHVqD4UYAOz3vr0N88oW9eJGpls2/rOOlEERCA5Adrvd33geR39B6SSoXoJpF6CpU7q1/Ktlw6EUsinHctRL1PX428FQHgyAHq3bHMvToK/M10hoA+FkuQe09gKbcrZ5pzLBrI6UlIdKq8i0JkA32LaPNjzzkltBjQ0L4Exvf11biQdLuQqxlXGtjWvzXX9nm6C28jWc976296X3hT/ZaIUSYXVEoQKfFwdaVu+ZedRwVAiAiKQOQH68277ljPvoWcMgZQyJC+BXKanPsI81qHfL/L2F7vOHuFYjtByzzr/ppahhOksx9Pskitk3Bt/ZGzgxvSf51xfuxvzo8tFQAQiE9jM4aF/VOQ8tkl+KF4CU3n7a8M49Jy9jW2LfuvpAKlySWz1Y992QKJvg1kTCI/vOLFg8KWtFrhhDuXseb7nahq3nmZFB2WEz2cBYFs/djrhpTXC9ZNVk9un/3h86cSahCsp3EY6AMBuAHitRAREwInAS4yd3c2JlMtmFd/bS2BbV7mz8tLlO29vf7FdMy8rIx0EWQZNRiisi8UlMdtGWznJmO+2ZeZe+WEAtpsMhndvm7nI59GfA937ti3DsvN+DIAYM+M6AAAgAElEQVQrKo+Z+J94D4ALjGlzEnj2ROn44GmakXEoeREYNoEjjQ/ktzPCU7KXQO9tDC9vf12rlwOadU/58AU332Aa6e/LABiUZt5AdMVESTXU7bFn2Nx5+Wp+z3vSb8JTMphQb7GEaTPvy/7m2/yyc7r+zkkiTTNTWCEtaJ76SQTKIPAD48P53syKWaqXwGOM9VDvQGN5+wup6sc6lKdtsCY6tHk+gPdPtgxOBUCf/5w8cJl5tZBMT8/lqladZ9/HHDA/BuAZAOhUKYVwUO273Jb7XTeBdOBkRWXdFLB0TxEokQA7F+65WR68HH2Ae3oJ7MOEboimjNbYErQnT9WZM1Ki5ZnwvPbGqXvl50Ry4Tyv36IFBydSnmXpIy3W3T9mql8xj7W+F4EkBOgW1vpQPiRJzhff1NuJTkwvgd7e/nJxZnSKsW1xZSqVcBXB+lzEuJ4rE5+fBmDiqkdsYdtMsR3iwY7+HjaJDUjpi0DJBPY1dnScbecq1Bb2tEGPMbByouKpcEaN6RTe/pptgMvuvzW2LWrKp5LcvBfOGhC5QkL9m30AxFRWfepEA99qfTEr/318R/NmmjZKREAEZhCwemmjjXnOkvvS+lC8/TXbAF3BWjt4Djyp5J5TEzRrGfq6npOB0wC8GgAtJbzlEIf67IvFrPu8W1sC3k1C6Q2BgNXZyZsKgOCpXPcTR23jUpUV21S51bc8tfrv1eZGEc95orMm/KyBKcZ3fFv/7tR3gpdLYprxnVn4JIDxHHJYHYvYZJW0CLQnsL7D0t7T2t8u2Zne5nWcUFhlSN7+ZrHg/qtlcDt9VqIJvuMKknUrw8LB49ofAaD741kOeUKQek9YPcoWmsYXNQkIqXKdO2QCHLxDH6D6+XzT4CSiBMnNS2DpDosW1Tnf3BfZ5dfb0LxjmnPlIg+dKt4x2M+8/JbyPW3mqcvS1XPnKwbA4BPaDsjl0VI+UhLg8r2l47o4ZeY73DuXQdd7MpLa21+zKrh3b2lXvDbHcLIMlrM/gP9yWDmz8vG4nttZ75qY+jHoEZVR2wpXFDzunzKNlAqmbTnrPBGISuBk44P8yai580+cIU/PMJa53mnRzC2k42SJ+HZ8kWMeUnv7m1VLHFTqnEKP6XeBe845C70QvhgAl5StfjRC+cQ4n9Y8fDPeZckS+U4DmfyQIZ1ESURglAQ4cP3K2FHT/Kg02XTiNpQR4bw6UWrxh4hnoBVPhcSQMiw7l6aIFr50PlOScBusmgxYtz4s3LyuvbY2Gah7UaR1gbXP8MqjRzp0U52jD5OS2r7yWigBNnzrQ0QnQiVKKi+BuZsketTlegCse+X0IFiq0HMhJwMMgnSLwzNmfUat19Ml8ccnFgC7AvjPAZSnyeObHVbxSm2byrcI3EXg740PM5c917wrtbIOYjjfqb8pzaJBp0SeHtUYWz5H4bJqs5MN/ZtR44YgfD64pM6ldTqkCeWg8/thxtDPEhEYFQEG8LF0MCndtHpU1J87L2cu8hLICYdV36JeVzHdElvZMhhPPa+hx1yWzSUsrpVF/XrG3OBbNN+mY0bGC+Wd+nxOjOiMjJ4XGTyKuhU0keU/HvM7Wh4cC4AxEWLkl95C71OvLB2LwNAJ0IWo5WFiCOHSpa8l+VRbDinq53xju+LS+dCFg9uO09C/nqtClue572svBPDSiRUCPS62FZ77Mmcl2qrcb2ybCZ0nAqUTYAdkDXf6ktIhTPMf20ugt/OUUKXDPquJqypWn/Gv6TPDGdyLqx3bAXjfZHC73Dh5qgaznD/Z7zDMMC1yugr7L5pjeupYUPFxra4Z0nUiUBKBLRw6ms1KKvCCvMb0EsiOilslXh0ytxFCzQ4XFN39pxc4lHVz91yVkyDrljb5NKOkhYdXu8klHZq/PsKxOsjqSkdO+znmTUmJQLYE9jA+NNy3u1u2pQvPmLdjHm4tUHJxPDTNTvQP62oKO/OcJzjRATZu8Mip1z5678tlEO+aDzoP4p6+t2w0sec/24nPOd6ZU3oikCMBqy3613MslDFP3oP1bgAYoa1rh9m8rppUGIsZ9fKfGstLZTDJbALcSqI/f6uPhWa76uNvvvnHGPwrUhs7rgR0dZFc5UWfIpA9gXONHfU7si9heAa5XE/t+j46xNB7eAQfCicSdoWHXwlqgkuWE2CEv9dPI/5ZfS6EtsXQ87nn77nsP48OfZLc6vD8cvtFIgKDJcA9b2unkZvvea/K8lbYC+0sZ52fq7e/JnMO3rPyH/KdvLI1qS7/m975Xj2JnXCa84pTSL0tOpcKf33JAQ5tkCGPJSIwWALbOzwkGw6WDuBpsreoY2zzG7cQ/qYQ1ly+b1Omeedw+0BiI8Bldk7EvuwQjXFePYV8T1M/i7Z/KA1q8VuVAvlydN/QG+t8ESiFAN2shjzEzXNpqjRk8Xba0+QX8jf1EkoQMqMzlZCyNc8tYZujhLqo8rjOxJKAHu4+72Dy26yrtn/Tzr9v2dPYDlk2BQnqu9Z0v94InGB8QD7bW07T3Yhue60DWttOct55VPZa5l44HaGV78w93nnlaPv981dOUn85EkjhkpiWQiFOfryKy2ibVo+BcgrkVRtKJzsCVmcjJQdqCakMTy+BbQfB6jyGw6U+Qimyt3ECQOdBdCIkiU+ALokZn+BjAK4z1lvVXmd9prTo+IyxXKWFOY/fanSHQRDg3v2shzXkO+oQjEWsdu0hXOvn5uztb1bd031vPf+hx7Rzl/RPgJYvTwFwVIQVr5QWHbsb2+P3+q8K3VEE4hOwRmqjgsza8bOZzR24nEgb5tABzXL+KYU5w6ErW2twm8OzqfHxZoSOvbYBcBCAix3aPIP4pBJ6CLQ8g5emyrjuKwIxCbzT+GDQf8DYxNtL4KKO6VeTt7EHFAaYHf2iMrX5rQQnR4VViym7VOrkNlSbupt3TkpNeurwzMtXm+/5HEpEYHAEaCvc5gGYd86HB0ekXYE8vQTOY8vvn9MuO1md9QZjm6Kp43pZlUiZIQGrF8uUCqyrG9skHQpJRGBQBLjER83cRQPQst9eOSgi7QtDW+YzjOyWsS11cnWqkQu9L0ryI3C7sV5LngCw7BIRGBQBRu9bNggt+33MfrJjegksxdtf84Hgm5Z1qViuV5tU8/j718b+ouQtAL4oSURgUAReYnyg6dObWsNjFmrnL5skhf7OpVbqGZQojGMfWt7m+U8tseAjyPMvjHW7ZUJGViVAll0iAoMicKTxgf72oGh0K0wML4GlePubRezNxjZ1GwBaWkjyI2Dd8npFwiJxq7I50Qz5m2WXiMCgCPzA+FC8d1A0uhVGE4CVuX3L2KZ4vSRPAscZ6/bYhMU63pj3MXg7TVg9unXfBOgK1KrU83d9ZzrD+2kLYEWlMPAK3+BD3qya5x64IjkdZUTgYQC44tesr5C/6Y43lSvgm4x558qWRAQGQ4CxskMe3lnnjj1Uq5QAV34cuHc/q52EfLftyknqr8QEWB//4RAuvGoDL0tQHqsXQOZdwYASVJxuGY/APsbO+pp4WSsiZSo/0lyt6thifH6kCBIrMkntfQsHWg/QikCSlgBNXJ8XqX3Ti2afisM0PaRFjaVdMi5Fac640rYg3T17AtZY7V/KvoRxM9iXI6CSPOJZdUro8liSjgBdeu8L4GfGAXPZYLt/j0X8Z4ey/HeP+dWtRKAXAtZZ8QG95DLPm/yNg1e0ZZ1k9TtdkJYQFY+e+xgXosp3l8+xRJXMrVXz7Za6F9b4DW3r/BYANMuLLXxO6cGvbb7mnfevsTOq9EWgTwLrA+Cy1rwG3+b7sdpq39thSbEN3/o5JxcQDMgaVIrlTRksps/nL5d7bQGAYW6tysD1ttr2+EoAG0UE8SDHaIZbRcynkhaB3gk8zTj4c/LAScQYJVU44L0yh/1+Y5uilzlGEZTEJUCz1acD+LqxvtoO9IvOOzvSJGBjAOc4le/8AibfcVuMUh8cgTcZHw6GBh2jcD9+UYcW8zcqyNHqIFdhR2kp/4m5Fmwg+VoDAB3xWOvJUsezruVKAC2SvITL/lcZ22I9n6/1ypjSEYFcCFCBr97IQ48/lUtBeswH90m5Hx/KyvN8Ktn1qUHdFi91FKxbSnu3vZnOCyJA//vU17k6cdtd9Bxwn555tHiApLY/Ff489vyrvNLSiVt+EhEYFAHrQEYTwjFJDG9/VScT+pmjm+AXOAwujxhTg+qhrHTccxQAxusIbWOpzudqwJ6BEwFOGmjnf2mEctIiQiICgyJA5z3WB9xzya4EuDG8/XWtgxwDBVn1Irhky0mWxE7A23FP13ZquY5e+z4DgP77qYB3PwB8w+c/HvO7PQDQNbHVw9+8fF4GgNsmEhEYFAG6753X6Nt8T43hMT0YMb39teE965zcQgX/1Nim6JNC0p0AHffwuY7tmGpWWxzqdyk8FnZvAbpSBFoSYAAfy0PLfeixSB/e/rrWRS5eAj1WlF4+lgblXM6+HPd0baOlXkeHVFqRcm6sSi4PAt8xTgBo7jUWebuRVb0DpN7Fbs4OhJ6TQUVQs7xezi7HY48pEVqNfTvu6VKnpV5Dxb8SHG+FthmdLwJ/0iC3KgX9w0g4env7e/aUm6cL4Ry8BDLEq6Wzp9tZSTsCjwTwiUSOeyx1XMq1tGR5Rruq0FkiUB4Bev6yPoyblVfs4Bx7e/ujklwl3Faw+syv12FKL4FcJrXaXNfZVIz0uYIAGdNxz2kOz2693Xgc0/XzFwBsNwni9M4M8xdaxneswK4jERgeAZrYhD4U9fNvAHC34WFZpUTcX6+X23JM86SmLfGmztrLqbwE0nTPwobX0oRQsioBRkV8MYBzHRhb66h5PW3tuRJRfxngRMXzuWneM/bfzLv2/Vdth/pmQASsD+jXBsRiXlE8vf3RZI9bCbOEg7ZXp5bKSyCd91jKwCVX7beu3Do2yNhxD50J0Yso8zhLuLrFFQFLm0hxLR2bjeHFZlad6bsREbC+TQx9iczb299bF7Qtvm1w+d6rw0vhJZDuey35p1tayZ0EHp6x4x6Gw6WyZxvzX04CPmZsF5Y2FXotB3/mWSICgybAZWhruNZnDpiQ94BMm+xlHQvffq1eGesdXp9eAhm4hwF86vcPPR6TRcm8R4f75//h8GyGsm9zPvUOdu6wNM5n6SBj22iTP8s57AsZflrL/vNapr4fFIEnOTyQGw6KyMqF8V6S5xtdG9nVoV6qjpCdGgeUPmRLh3xzu2WMwuXmXQB814FhVfden2xDXwSwtUPF8IXhugzLeCMAPncSERgNAc52LZ3E5QMm5e3tj66DQ8TqSrder315CbS2Jw4064VAGsC5dNyzHwCaPtbrLIdjKvi+GwBD6XrKgwCcnlF5vzxRYJTfCc8aVlpFEDjB+BB+tohShmeSblTPMLKpd+BdvIgxoMlFjnmgsmdsOdWY3zF5lMzZcc8vJw3lQADrRmwwXGan06qfG9tM/TkLPWY5aVUhEYFREuAbfOhDUz+fb3xDFG/HPOzsu8jjnb0Exlxep4kaLQ/q7SP0+F1dIBV2Df1uUMmM8TNC+cQ+nzoqjB/ACXBfstZE2/4tAK7vmQe3Ibj6IhGBURLg3r21Q3niAMnF8vbXFZX3ZCSWiR31DKzt6aldIWV+Hd92d5juo9PM0crJ83puu3x1qn+QEiOtCfr2cTBk/aWUdal7F0DgWcaOiB3H0GbQ3svuH3ZoBzlsR7QpxpuN7ek2AHwbHJKU5rgnF/abTzLCLQhP75izJk05xM3IhbnyMTICVjed9B8wNMlV8c5bITGGl8BvGScAvH4oUrLjntzqgNtnT5tsmfwLgH+frKR8e7JNcYGTJcGhuRVW+RGBvghY/Yh7vN32VdY296F50qy3hC7fcXVk2zY3DTiHVgRd8jLrmlsA0GWvl3DlhG/ws+7V9ju+8ZUum0wU5w5z0IVoyyzkvIsnPhr2AXDP0iHX8k/XwyEMmueOSem0hk2HYydAm+PfGB+eVw4I4v0A0KVps4Po+jeVmryF+8gnOebxhwBWc8ok39C6sqqu854wORWtVTLbTHzgH++ssFlxsX7yjZlL3XTSNDRhH2Thc8eMmBxDY6TyiMAqBLjHZnlweC3DkA5BYgysy7z9deXGiYo10l693r28BNJWvJ5u6DGtB7hfXpJUjnv+y1j2UFZtzucKFB33bFUS0A559ejHqJwpEYFREfhHY6fFDrtPU6GYlZPK21/XMuXoJZCrCW0Gpnnn0E9CKUL32VxKz9FxD73ZcQuCjnbGIJy8W70KDmHraQx1rTI6EviAscMeisKWt3IdQyv3IZ7KigxNbLHmoOc+vnHOG9zbfF+CP4mxO+7po113uQdXOtq0sXnn0ARSIgKjImB9Yzt4ALRKMa+bhdrbXNHiJdBqTsqO+bGzCpnJd9zqorJZjo57fjS1nY+15ZRJFSzMxhuME4CbBrSauRCUfhQBEqDDDWtn9rwBoHy7seOov1Ewel8sBzvzUHs7LOpqE83ofXUWoceMHpibgpoc98xrdfl9TwXM0DbXPP/R+RVLORKBOAQ4cDQfgNC/Hxwna72l6j14Pru3nK98oxy8BJ5vbE+fX7lISf+S456k+DvdnHVGs9bQPqx+PnU6JCIwCgJs7PXGH3p8TeGUqMTF6Hih5Z53PvfjUwmXfum/fV7eQr8/eUYsdO59M4YAV0w+A+B7AC6b+m6nGVXoPZrn750KXu2+dNzzJmdT0GY5u/5N89QDADCPktkEaOrYlS+vO252svpWBIZH4NPGh4W26CWLpwJdX2F2F/H2VmSkVcSWE4cxDMzjGY1wXgft6ZBoEadZvz0cwFEAbjY+E/PKZvmeKyuvmG7Zzcq7vltB4CBj/V2xIikdicCwCVjffvk2Uqrk7u2vK1dPL4GWQSv0Wr7dcr+9b5Hjnr6Jx73fLsYJANvtQ+JmUamLQHoC60+WE63RyHZMX4xOOSjB21+ngk0HUU8vgaEDedfzuRrVl8hxT1+k+7/Pug6mqIxEKBGBQRPYyThT5uSBk4jSpCRvf13ZensJ7Dqoh1zHGPDUSeHgHEvkuCcW2bzSPc/Ytx2dV3GUGxHwJ0BFp5AOunkuA4qUKKV5++vKmMp6zTor4e//BLBp10LPuW5jAHRRfEOGTOhFcD+jA6Y5xR7t1xzALW19iNFNR9sYVPDZBL5kfEg+NTvZrL/1VpLjfnvO4qnkaOlQQ69lcKrdHMBuAYDt1OrrIjT/bc6nxcbfyfGMQy2vmgSX8NvUwbxzuLq55qrJ6hsRGA4BOqyZ9wC0+b40e9k+zORyax3eZo5t2oXXOeyE+dYeuiXALZ6dJyGYrSGuvcpRT4dukv8DwHa5NZSB5YdKfHXuXY5pFSIRgUESYKzyLg9F/ZqtCyNTure/rri9HR3V20Afx3yDb+PeVo57uraQYV5Hcz5L+/TehhomZZWqSAJcerQ8HLcVZpP8eOf47NxfL0neaqxvS1vxuPYLAFabA1yOe+aAGfnXxxvaPJ1arTVyfir+gAm81/BwsEP/QUFsvJfBU3r764rde/vDY1APTeOTDT8BctzTtTWM47oXGvq408eBSKUcK4HvGB4OdtxHFATOUxEuB29/XdGzzkIH3dzOp5c37p9zRcAadjhG2ah38PTGRKVrfek6GwFO/OmqvEs9c4VUIgKDJMC3Qau7038ohIynKdzvAXA/vURhxMYuHaGuWc6NFgZcnaDFgSQvAv/Yod3z7T+3iJR5UVVuiibAjsrasf91AQQYuMZq6VDnxH30EuVhAH7rUOd1Fjq+06cArRToY0CSL4FDAto+4130Hco7X3LK2SAJ7BHwQMzq6OlMJdQ0q2+QNAVjNLtZ+e/yHW2222ii913OZfdjPX3TkUMXdkO7ho579pXjnmVNL6vfXwPgd0uegy8qymJWdabMRCLwkSUPwrIO+2uR8uWZ7Fi8/S1jtqexrpe1hTH9Lsc9y1pb3r/ff5K9AwH8XwDXAaAlE72ZfhTAE/POunInAn4E6ObS0nG/wy8rUVIam7e/eRDXdt4CqbcZeupj8J6XA3js9M2JKyT8R7M8fsfwtcdO3NzeaGxv9fv2fVw57tl2HmR9LwIiIAKlEKBmrFV7mmF0cxUOQHxT8xoouI2QIkStB98Ytv8XAngpgHsGZJDnvgwA91e96iV2OlSSPWoyyaH+hEQEREAEBkFge4dOeMOMSbzNoXzV4EIFQioSlij3cX7z5oD4OqPfek7O9gdwi2MdVXXl9Xn1JET2AQDuW2KlK88iIAIisIjAPxk738sXJZ74t7F7+6vjZ5wGr0GRb+6PqCduPKYL6Ssd8+dRzvOnWxZrGMumy0VABEQgWwKfM3a8vD5Hkbe/FbXCLQuv5fYfRdKM3gjA2ca26DHwf12Oe1Y0HB2JgAgMmwDf4C0dJ1cQchR5+1tRK1sa67hqH5xEUKEvltB+PsVKgBz3xKpRpSsCIpAtAe7dV517188czWWolNi1PM3rqCBZusb3uxx4cJ/+f/XQkh8H4FaH/DbrcdbftEY4DMCDeiiXbiECIiACWRGwusWlK1wuteck8va3am1QU3/WABjyHRX++hIq3YXkLfRcOe7pqyZ1HxEQgWwJvNPY0Z6TWcnk7W/VCqGzk9ABsnk+JxD3WDXpaN8w7GqMrQCagzIGQp9liQZJCUcjsAOAjwO4BAC3h+jp9IyJ+e+bAfB5kojAIAhQ4anZ2Yf8nVsYXHn7W7VZWld52B5o59+3eHkslOOevmuu3Pvdr4W7cLoP3rvcIirnInAnAfqEp/e2kAG/ee4rM4Ipb3+zK8PqB4FtJMTJz+xchH97r4mfgZuM7fPbctwTDn6kV9AKhaG9m33cvL8PHSknFXsgBDYLaOzzHoJHZcJC3v7mV8RnjPVM976pxJp3Xi8RgWUEGOqXk8V5/dy87xlaWCICRRJ4SYcGX38QuBSWy16q9S23Xq6Svf3NaohWN8j07Z9Kdje2UQZ5kYjAMgIv6NjO6CWS+ioSESiOwJEdG301WHLGnIPI29/iWrD6eWAQn1SylbGNXpYq47pvUQS+Y2hnnDxIRKA4Aj8wNHpOAt6bQYnl7W95JVxvrOeUPvCplFVNOLt8suwSEVhEgH0IzZm7tC9ec/yixPWbCORIYM2peUvXRs/raE6VWj5ieHCbZb80Q58GHnxpxtQsa8jfq3lkomMaqxvzzvjuEhFYRIDKwyHPQ/NcmqtKRKAoAvS21mzIoX8/OHGJPczbqjLzDeBvEpcn1u3HPAGgR0GJCCwi8NcOfeFDFt1Av4lAbgRea2z01yQukLz9ta8Aq6lnyVsAVOiUiMAiAjRx/aOxP3zxohvoNxHIjQBNu6q33y6fJyUskLz9hcG/wljXDCSUShgmuEv7rK6hXbdEBJYRONfYzo5edgP9LgI5EaCLy6qT7PJJX+2pRN7+wsjThWmXOq6ueUXY7VzPpqOpKh9dPr/nmhslNlQCHMC7tK/qmvOGCkblGh6B9R2WvJ6aCIu8/YWD/6yxczs2/JZuV1DDuupku3x+0i0nSmjIBLiE36V9VddwC2G9IQNS2YZDYCeHxs5JRN9Cp0PWt9nqgeXnKZPgHtxOGLq81VjfdMebwtmJhyvg/zP0ylX5XAhQia/eN3Q53sUlJ0pEBCITeJOxsV8cOX/zkpe3v3lkFn//LGN9szN82eJbRPnV6gWQ+d4tSs6U6BAJWHVlDhoiFJVpeAS+ZBwQPpUAibz9dYf+QGN9cyC9CADjLfQl9D0QEphl1hsbl2XpSEgiAm0IWLebcvGM2qasOmfEBGgaNavDbPvdPj2zk7c/O3AqKbWt33nn7W/PRusU/tkhvz9ufTedKAIA+7V5bb/N9/Q5QcdVEhHIloDHXhedCPUpxxgfzPrDy7dKTijGJPT6+A0HhrcAoFlebKFDJnam9Xrrcvye2BlV+oMi8GiHNrfNoIioMIMj8HxjI6dXOQ4ofckzjfmtDxx/ALBtXxnP5D5PAnCBI0O6Pd04Ytk2BGDdi63qnB26RATaEmBI4BuNz8ob2t5M54lACgKHGBs4Q8v2JfL21500B1LrnmY1kDY/zwawUfeszb2SE4tzjO2zyivTkYhAKIGvGtvfF0JvqPNFoE8ClrCX7FyP6Cmz8vbXDTTfYvYGYHX/Ww2k8z65EuC5FcRl/6uMnW89r2/vhk9XjZzAgcY2eN1ITItH3kzKLD61uG82NvB/6Kno8vYXDppL3tYQz/VBdNkx9+npEZL2+l2F2v5U+PPY86/nl1EAX9U1U7putAR2MPaPbIObj5aeCp41gS0cGjcjZ8UWefsLI7z2xAvZ+4wxzeuDZ+gxVwP2DJwIcNJAO3+GYA69X8j5nwDAYC8SEWhDgA6v7jC2SbZriQhkR2APY8O+AcDdIpeKqxTUMwjp5Bede/LAl+Se46g0t4hjm9/oMfAzAOi/f6upDT7f8PmP9vj8jm3wOAA8t02aHuecBWDTyO1WyQ+HgHUV7ePDQaGSDInAR42dLhVkYgv3bj06faZBfwd/HjvDidKnOScnN16shp4OtbvlFTBRYy3stocanytFoCyswseSXaszmNiKVVQE+73x4asPZM8eYMVyhYQOS/p8g64zLfmYngEPA8CYEhIRmEeAq2rWdh7DSmZefvW9CCwlQOc3tIO3NOxdl96l+wncE6a7WUv+6td+uHtWsr3yCQCsccvrjMZ6/J8AaGIqEYFZBNg2rM8GJxESEciGAB3CWBs1bctjyUcc8leVj4plQ/L2t+70zdU6gav46BP4hbMZY6znQummIWCNQ8FtBIkIZEPA6lv9soglkbe/2XDpC4Fxyq9xnBxp8F8xEaa29z/NRq9vR06AinyWZ4WKhBIRyIbACcYG/e+RSkLt8KuNeas/qG+JlM++k30YgK85cqkz0vHKnfsnA00Y+24Lul//BKyhqKnLNKRVyP5rQHd0JcAlT/Uy6NgAACAASURBVEvH/79dc3NnYnzDPcmYr3qZfthzyNoISP4UZ4HeyLwd49Q56XjVZ+H8iXliHz4uYrQZpelPYDOHfolOhSQikJyARzz4J0Yohbz9rQz1aQCse49dBncG3/l7AJ9y6PS63D+Xa34N4BkrV4n+GikBvpzQra+lbXIiLxGB5ASeZWzIVD7zXs7y9vZHT3SlCn0V0GOdpbPpci3r9WgA9CRIYadn9YXeJR85XSNTwTvbgv4HGNjH0jb78JuiehKBpQTeaWzI3pHV5O3vzirrK3DPrE6MSkqPmdNynjvxNcC34VnXpfyOAY7oi6KPvFH/YoM5fPT1OAhQQdTS3umrQz4nxtFWsi7l140N+Rjn0r3NmJ/6Q0lvfyXadHPwtbocrXNoe8xBlNECOflYJH8B4HTHemqbv3nnfQvAg6cZpltfuvedd67X97R8oftiyTgJPN6hjTFAl0QEkhGg735raFjP4BZj9/ZHh0cHOXs8bDvgfRHAxgEtsTJDZLCftvfwPo/7sPR82IxBsQYAOnvyvl8zPZkKBjSYgZ26+sRM9BZjG2PblYhAMgIe2qyPcso99Qg8ldy8Vyacijk3mVSBe+gYaae5uVr+A3UE3uygFNUcXBf9zYGfoYbvsyR7DPnL0L+L0vL4TVEFl1TEQH/mypOl/Rw/UC4qViEEXmJswL9z3MfigG15mOrXciLhrZgYq0pTBe65fRKJ7x2O4XAZKnVfADSZq9eF5zFdHXOLIqRuuUzP5XrPfMxKS1EFYz0h+aZr1Z/6Zb5FU87GQOBIY8f4bSdIf2vMR71DppMNbiXkLgyD+y8AbnYse53DomPu328eERBXhd4N4OzJmzo15xflZdlvVDJlR7u1Ib9U2KPW9bJ7WX+XqaChkgq8dGeHNsUXAIkIJCFgVTR7r0OuqaRHZT1r51td/1aHPMVOYlsA1uiLVXlDPq+dvA2/dGrSF7uMVfr3nSjlcYLHJXv6EvjedKvn+unyPPfReXw5gP8L4NiJEiLrcBcA968ScfikYiNXPKwTkmW8mT7vs0yR0qFISiIxgfUc2hPdeUtEoHcCa07eQLkMvKxDW/T784y5Hpu3v1SBezgocZ9apmvA06cTjkXt2uM3RRU0dg6FXG6NwElfGxIR6J2AhxnLXxpzPRZvf5XGfIrAPQyjLLejKzfUvkwFFVVwZe5D/Oso40sUVwIlItA7ASpsWd50OJhZZCze/lIF7qFuAT330VxJsioBmQquykTfhBN4kbEf5erc+uG31RUiYCPwaWPDpd14V6EHrDOM969PXk7peV+7Tbm5xZIqcM9pk730h7fJpM4B/Vj0YSqoqILDbGxU4qv3RV2Oqe8iEYFeCVht7t9oyC1dtnZ5UGZdQwVC+svPSZ4E4ALHMs4q96zvaFYkpaLwlkCPbD/tob4UVTC8bkq4ggqss57Htt/R+ZdEBHojwCUnqzb0jh1zO2Rvf7kE7ulYNaO+jNYKXElq22l3PY+eN3cbNenhFf44Y7vxMqceHlmVKAoBen7r2oHxuq77VnR1S6U0y73r19Ldaw5CV7RcSra6Va6Xre3xmfJJ79YEaLrHbRtGQmzLv8t5fH4Oc3Si5QZACXUiQOdUXdpBdc2tExfg1EmRiEAvBKxhXTmId5GPGB+U6oHhJ13YhniE65LfNtfQ6Y2nPkO9jIuOfzvxRc6IZLI3b1NLYefIVDCM19jP5hbSome1zW/bjB2iyt8fgZONDfbfOmT1mcZ71h8ivqHRmU5KKSlwT0pOpd6bEQ+/79hm6+23fixTwVJbyIp8cxJ+o7GtcDIvEYHoBGiTbvW8xyWvELkfgKuND0i903xLyM0jnEut3T78y9fLzGNr4J4IKAadpEwFB129roU71di/fcE1N0pMBOYQ2MTYUDkQhfhlH5K3v5SBe7hnzIA7kv4J0LKij5gNMhXsv2697vgmY79Kd9jNsNZeeVM6InAXgecbGyrdB9PGva0Mwdvfn03jzt9kZNd8o2/zN0OOxgzc07Yex36eTAXH3gIWl5/eNts8z4vO0XO+mLF+dSBwiLGhMphLWxmCt78nALD6+1700M/7jW8E++itoG1T6+U8ms/KVLAX1MXdhDpBDGw173lu8z0tiSQiEJXAd42N9P0tc1e6tz8F7mlZ0SM7jVtaVNiSqeDIKr5Fca3RVT/e4h46RQQ6E+BStnUvs62nuVK9/SlwT+fmNaoLZSo4qupuVdhDjS9X9M4qEYFoBDzsVbmsv0xK9fanwD3Lala/1wnIVLBOQ8fPMU4AuE2wkTCKQCwCexob6A0t9qRL9PanwD2xWtzw05Wp4PDruG0JH2DsXzkB4CRCIgJRCHzU2EC/2iJXpXn7Y+CeC41c2ij4NM9R4J4WjamgU2QqWFBlRcyqNcgatxEkIhCFwHnGge5tS3JVkrc/Be5ZUpn6OZjAFooqGMxsaBdQka852Q/5m4qEEhFwJ0C/+VbN5V0X5KoUb38K3LOgEvWTmYBMBc0Ii06ApnwhA37z3N9nEuOk6EpQ5lclwKXuZmML/XvDVZP90zelePtT4J45FaivXQnIVNAVZ1GJbebQz9KpkEQEXAn8s7Fh/nxBbnL39qfAPQsqTz9FIyBTwWhos02Ykz9rrBVGa5WIgCuBE4wTgH+fk5vcvf0pcM+citPXvRCQqWAvmLO6CQP7hK6u1s9vo2ydVYGVmfwJMOxovZGFHu8/o4g5e/tT4J4ZFaavkhCQqWAS7MluSk+Rof1r/fzfAmDfKhEBFwJ0LlFvYF2Ot5uRkxy9/Slwz4yK0ldZEJCpYBbVED0Tj3fob+m0TSICLgSeZWyQtB6gFUFdcvT2p8A99RrScY4EZCqYY6345mn1SbyIW4x9LgOBSUTAhcA7jY3x7EYucvP2p8A9jQrSn1kTkKlg1tXjkjmG8e6y0lpdc7xLLpSICAA4zdgYP9ygmIu3PwXuaVSM/iyGgEwFi6mqThm1vnRd2emuukgEGgTo+OY3xglAPU51Lt7+FLinUdH6s0gCMhUsstqWZnpnY5/LlQAqMktEwERgc4eG+MhpDnLw9qfAPabmoIszJEBTwe85PKfV8vG8T1oCPS7D8g8xS9yWtHpebRt6fYj8VCYnAv9o7Fh+NzVJ4ZLlSca06h3TDwFQYz9EUgXu4XKcHsaQmtK5oQRkKhhKLP/zzzX2l0fnX0TlMHcCHzA2wtOnBUzp7U+Be3JvZcqfFwGZCnqRTJ/OUca+l8HbJCIwl8AGAJ4C4DUAjgBAD1LU2GdIyusB3GZsgHxjPxiAt7e/V80t0co/3H1Sjr0ddBjqKw9tjxmV6zErZ0d/iUAvBLYCcJnDs7usrZ8FYNNeSjTOm7zIWId/BLDeONGp1LMI3BMAI/IxZjQHejaQZQ+59fcXAvi+431OBsDthGXCwZeDsDX/oddTYZKTDk4+JCKQigAn95zQh7bf0PN/DeAZqQo58PtSiS+0Pprn05W5ZMQEqMW/DQDuB1m1+ZuNq83fn3JoxNV9GCSDy/mLRIF7FtHRb2MiIFPB8mv7cmP/eVD5CFSCLgSoFLTndDm/GkBTfDI+tdd9/3YJiOcCuMLxfm3zfelEC3unJXnTzyKQigDf0Pmm3rY9dz2PKw5ceZD4ETjOWG90KCQZEQEu878OwC+NDadrJxDrumMW1CGXyr6coLy3A3gHADKXiEDOBLhX/+MenhHqHlAHQeJDgNuJlj71VgB0LSwZAQHu9/zU2GAsjS3WtXzDbsYSYHVWgXsY/SrWveely5k1fSRIRKAUAjIVLKWmVuSTQX3m9UFtv+cWsGTABOgIxBpDum1j6vs8biEwcFBTtgVAM5e+83PtRMP6pS0VEZt51t8ikAMBbg3yzTD2s/MJrY6Zq5thfW801hXDC0sGSoBa/TTZi/0wp0r/LY16U+CeBhD9KQIdCCiqYAdoiS451di/8+VQMjAC3Nc5rCdTvlSDf93bHzWa6eTkGuPD0KUsFwHYYWDtR8URAUUVLKMNvMnY5/EFkdZgkoEQoHOH7xobRZeBsM9r6EL44dP64l47PQr2eX/e62YA/zJR9FttIO1GxRCBJgH6q3h7Dy8S9DnC+8g/RrMGlv/Nlw9r3yd9peWciziDdvD0wGVtELlfz31KBe4pokkqkwMg0GdUwfsPgFefRaBvkzuMfX49Imufede9HAnwjfjnxoaQ+8DP/NHbHzskav/3nV/6EaA/AYkIjI2ATAXzrXGrN9WP51s05awNgY1GMvhzwP9OgoGf1gaHA1i7TWXoHBEYKAH6tOBgEXviTSsErvJJ2hGg+3ZLnTC+i6RQAuuMZNnf0sAt154p5yWFPhnKdiwCiioYi2y3dJ9jnACwf+RLpKQwAtT2T/FGbBlQS7lWgXsKexiU3V4JbKmogr3yXnQz6n5Z+1VOIiSFEeCytLXidf2qDL8IYOPC2oKyKwJ9E5CpYN/E59/vEuNYwG0ESUEEdjNWeNuB/6qJyd2xk4Ah+wDYEcDDJj4G6HCH5m/8x2N+x99eOz2X17RNP6fzFLinoAdAWc2CgEwFs6gGs24Gw6NLCiFA974xI3hdN1V6e2xHHnTMw6AfXKFgWjkN8rPyosA9HStal4nAlICiCqZtCjTlm9W3tf2OpoRrpS2C7t6WQCzf/r+YvsXTttRLmNa+iULxtmn8dCIkRxheta10xkxgE0UVTFb9mxknAOwr5dE0WfW1vzH9+7cZ2ELO4eyProNnRdVrn7PFZ9KE6EAAt0XIf0hZq3PpApPbGnKDubje9KsIhBBQVMEQWn7nctXV6gqd/bMkYwIcRL1D+l4I4FE9lpmBRi5OOAmg29GPArhvj2XWrURgbAT2UFTB3qvcujL81d5zrBsGEXid88B5QuS3/nmFo0OdE53LUr3ZL/o8H8B28zKl70VABFwJyFTQFefSxBjad1H/t+y3mwAwxLAkQwK0+acr2mWV2PZ3vgWnrGxqDx/lWJ5F5WbgHi5vkaFEBESgPwI0FfxKD885/XbQMmrM8ngHzo8eM8Ccy07XmIsGuZDfjs6koNy3+qBjuWYxOK0WOTCTYisbIjAqAnzO+Xb6h8jPOrf3qMuU8sUmZcXyBecWI2PqRUkyI0BFNfprnjXAhX7HZf+cwm4yLzG2AxS4J7NGrOyMnsAukc2Xq76Qe9kbjJT2t4zjxPEj5ZZ1sbc3Vmr1YFD5LseANrQ/vcCpjHzL4ApHjuXMupEpcyLQA4EHAfie07Ne9WuzPi8H8LgeypPbLd5pZHtlbgVSfoCPGCuVDwid3fSp7R9ab7QOYB5nPcwh330u9MY6XwREoFcCiioYD/fODn3oQ+JlTymHElhz4pznBodKPSj0xgnOf49DOW8EQFtkiQiIQN4EFFXQv37omt2qa8F6kWRCwMPxDz38eXr3i4WGjoi4BBXyxj/rXM6CJSIgAvkTkKmgfx2da+xDc1ES9ydTYIqM0jRrkAv5jkF6ShEPXwdHllJY5VMEROBPTrmouBfSp3U5l/FTGLNg6GI1r+YEQpIJgbOND8a1hbz9V7ipEGgNIKQGXNHUpwiUQUBRBf3q6UXGMYPmlOv5ZUcpdSVAUxZWRpfZbnUNI/KVJkcYy0xmdEAiEQERKIuATAXt9fVgY//JsYP1IElMYEeHiuwa0jdl0bd2KPdTUxZA9xYBEehMQFEFO6O760Kr19gSlMbvKuxQD/Y2DoRXA6AXrtKEeb7KWPaS9B5Kqx/lVwRiE1BUQRvh44z9Jx0KSRITsC6Ffzpx/i23tzbgD1hurmtFQASyICBTwW7VYH15vFXm1N3Ae15l1Ywt2a/zvsYZ7Nc8K0JpiYAIJCPQl6ngjwFsmqyUvjemY7VKD6zr5za+WVJqoQTOMVYidQhKlZ2MZefDLBEBERgGAUUVDKtHWlXQKVrXwZ/XMYCTJCGBnxorkMo0pcpDjWWn8yOJCIjAcAhwUHubg2XUskGRVkRvzyxoWpdaPNXYh36hy011jR8B2vAva6yLfi/ZFO6+xrLfBuCFALgURnfKEhEQgWEQkKlgu3p8k7EPpT+WEpXI29Ep4CwOYosG+GW/rVZAGedlkbGtl5Uv5PdfAqBOBeOF7w6A+1sluEeex0ffi8CYCSiq4PLa/38c+tDNl99GZ8QioAmA7yRg1oRBE4NYrVfpikBcAjQV/JDDIDerX6h/d0eh++F8wWHe62UJPebLkiQRAatL3JLdOVq3AEIbevN8TQwSNXrdVgQCCchUcD6w7xsnAB+fn7R+iU3AqgRYskmLVQmwOaB7/P17ABcDOBHAOybHLwCgJbLYT4HSF4HlBGQqOJvRIcYJwE9mJ6tv+yBgNQMs2R2u1QzQY8Bvmwbdbv4fAAxnLBEBEUhDgKuGVs33Ns98SVEFn2OcAJDHhmmqU3eVIyDb/lWbh9nzHK4O/E81WxEQgWQEZCq4Mvo/d5gAcBIhSUDA6gr42AR59rrl8Q4N13Nwb5vWrwBw+0IiAiKQjsDTAVzfQx/ynwDun66Yre58iZHDoa3uopPcCVj9OZccDOgaY6NtO2DHOO+/DPaztLulXgG3QPiPx7LFdX+0lOAICMhU8M5KpiKfpZ/7wQjaSpZFfIqx4ljpVI4pTR7nUG5Lg/e4dtdA6NQfeDOAWWE86dWQTj3WCkxTp4vA2AnQCZh1AGzTHzB4zp6ZwqYpX5syzDuHpoTqexJU7gYObi/fnyDf1lseaWyw8xpyn99zC6OtUG/g0hZlvgzAo9omqvNEQATuIrAHAA7SsfuATwC45113zeNgM4dy75BHUcaXi7OMlUdfAiV5vONM0+r/IPZD3iZ9Duht5MEAqDfQJk2eQzYlm3e2YaJzRCAGgbGaCnIL0epW/sAYFaI0lxOw2nFy0GBo3VLk9QGDYdtBM8V5t7QAfjcA3F8Lzd8ZBr0A3pNvBPSnzmiRj1Tc7xY1pVOGQmCspoIM7BPaz9TPp0WaJAGBZxgrjpXIfeUS9nC4D36lQ3nrDTfVMZUYl8luhrL+7bLEG79zFYg6BtQnaDKZ5eCIWw0KotSAqD8HQWCMpoIM7dt87kP+vmkSifEeg6j9wgrBTvg3xspjRb+rgHIf7FDOkEYd89zTWvD+rKG8x7VIvzqFlgRdvEpqYlAR1OcQCYwpquDjDX1N1U8+eoiNoIQyHeNQebdPQ+PmWl42Lmvgiqqh5vC5XwvQVOrrmteftUifp2wSwR5aE4OW8HVa9gT4fPzY8By2fX75rG+VkAajq3Jbsm1+Z523T8L8j/rW2xkrrqpMeqpbO0OS9wFgdVZRlfEtAN450Zb/j2maf3BiV6Xf5pMKN23cAlu0knntMqHyjzUYSJvyVudoYrCsRvR7jgTGYir4LWNfGGLZlGM9F5snduQMylB1tJZPBrLhHlguwn0lq4JKxeOCGcpxfLi3mEwGXtjTxOCPAJ7VEq7F2dFVLe5BPYGKTcpPTQxaVJZOSU5g6KaCfDGy9APUJZMkIsDGaam8+rUfnDFQpigWJzYfdizXXgGFiDEx4ED3qoA8nG4oO12QLpPPGNKvt5dYx5oYLKtB/d43AZoK/ryH54bbDn2b8+7sUK6H9F0hut+dBLiHM8tLXNfO+UOJVwL45u85+PON2MPfQdeJAR9obtWEiMXkMbaOQdd25XGdJgYhrUjnehMYqqngegCsW6Iv9oat9NoTYKfv0cFWaXA7IIVOAPf8vZb9q7IwbkJMqU8M3j4JkclVlI9NHqg3AqDrYq5mhAr1BBivoSpD209uHbSpt5s7pN02DynO08QgtIXp/K4EhmoqeK6xTzi6K1BdZyfAQaiNy9iQzpmKgdwj70uo7e+l8FeVkxrxXCEpURhqk3oDVVmWfYboGIR4GFx235x/18SgxJZfRp6HZip4VEBfM+uZ5wRCkpCAxz5Os2JpIvieyM6C+LZLO/8Ypn7PTFgfHrfm6gUHsWa9NP/mOSF6Dlat3+b9S/tbEwOP1qk0hmQq+KIW/cyi55wvINxKkCQkwKX7RZXU9Td64Xud80SAHgi51809+q75WnQdzf2GIE9cYo98JoBtAwvqvWW0qB5K+k0Tg8CGpNP/5BVzCFEFGXvE+qxyVUSSkADjXF/vUJHzGgIDzjCK4NYd97a5H8598SMi55MMNk5YD963pp9+cjtgUi46f+I/6hiwHvhbqKwzsUqwmBrOax9D/V4Tg9AWNr7zh2AqaFUmP2h81Z5fibnsHbJ33LXT5gBCt7MMKPQ0AA8HsD6A1ab/eMzv+BvfOOksoq9Bh770JYsJPLendtK1fZVwnSYGi9vY2H4t3VSQ/bnluePWoiQDAocaK9LSCFJf+4EM+JeShbY6BqnrtLT706SKSrTcknvH5PgFEw+UCqJUylNhy2fJpoLsDzyetdumK7x0Unc2AEYM5KrvawA8ZXK8gQ2xrl5GgG/hY1T0+sZ09WEZH/2+gsD2S3QMPDoEpXFnx6qJwYp2N+SjUk0FafXVx7PKFeqzAPBFlXoDtGKTOBNYF8A5PVVoH41m2T0ulBZq5xZE3QxGBWNY4JSxEpbV8VB/18Sgc9PN+sLSTAXphO3GBGMGo9pSr4kO07r4Tcm6EaTM3AMB0BZ+qB1nVS6W8S9Sgh7gvesOjlIHUarqeWyfmhiU/2D1aSpIHQSL3DODl0ZuG1ChslT/LRb+Ua592MAnAQynKT/UUZrOzEQ1MUg/odbEYGbTzPZLPjP0Dhp7AstIoHt2oMCBn4rasUyyu5SbFgnMk7YHOlRo8xKuBAxxO+D8yYP1l83C6u8kBDQxiN/BL+tI6xMDrtpQ+ZD7uupEkzwSq9w0R1NBWkz1EeRoWdud9zs93Mq/wCpNKfwL6gQMSTHwm9rzD28ECa7QxCCPiQHdbNMqQRODBA9B7Za5mArST8pXeliVmDewh37Ptks/NxIDAVoHHDIA++/3Sdvf0AryuFQTA00M8miJ/ecitakgV4Z+XdDgX00W6OCtdPfu/be2GXckxJgeA6sK8/68AQCD5EiGS0ATA00Mhtu6V5QshakgXwDpJ8W7X+4zPZoQ0nyQZZEYCHAJ6PMFNQbmdUNDeXVp2QQ0MUjfcVPHQFsJvs9Rn6aCpxfU3y+bVHA7m9vaEiOBpwOg6cUy4Kl+Z4fzLGMZdflwCWhikP7Z1cTA9nz1ZSqYqg+PdV8qtlPBXWIkwE50HwC/yGgicPXUdaSWeoyVO9LLNTHQxKCkps/22oepYKzBOFW69AFDU3eJAwE6X9h96sc8VYVeMM0DHwiJCHgT0MRAEwPvNuWZXl+mgqn69xj35SRAKwGOrZDuGJ8wgfohAFS8i1Fp9TTpfvKjAJ7UMbytY9GV1EgJaGIQ/zmvP/OzjrWVcOfD15ep4Kw6KPU7bgdIJyBC570GAOoJHAzgzEkcej6kHo3kvycVdhiAnQDQE5VEBHIkoImBz/Nu6TPGODHoy1TQUi+5XUvFQG0ZR+5F2TCfDGAvAIcDOHUaTY6KhNcBYChIxkmnmSHdOZ4L4EsAjgKw//Qtf53IeVTyIhCbgCYGmhjEbmN9mQrmNpBb8kM/NxIREAERSEJAEwNNDLwb3s4ZOu5h3IBjp8rjO04V8bgEzzdw/uMxlfP422un5/YRa4B+AuQsyLsFKj0REAETAU0M8pkYMOQ1XSK/sKBYCTQV5Bas5e3Yei1XeLnq+9iOTwJ1y7aapsG0rPmZdz1Xn+nnRiICIiACWRPQxCDeQDBvgGh+X+kY5D4xYFtJYSpI83C+xd/L8UliWvtOt4mb9eHxNx3HSURABESgSAJcRt186vr6QADHT47Pm+rXeHSQSqPdxOOXAL46VVimifQ2zgNhl8b5YgA3R3yDrtrGHdNy37tLJlteQwVwtm/qjlX39frk1olEBERABAZDQCsG/gNF6ICTw4pBbFPBCwE8qsenhmGrL3aeBFAxnc+LRAREQAQGTUATg/FNDGKZCp4wMfuO+dY/70FcexqyOnRCtuh8eriViIAIiMAoCWhiMOyJwVrO2wFHA6D5YSrhvemAbtGgHvIb9Rfo4VYiAiIgAiIwJSAdA79BJmRAap5r1TF4peNgycE/B6G1wAcdy0XdDYkIiIAIiMASAloxSD8xaKtjwIGSiqHNSUWXv7nsn/LNv9ksmZcTncpG3QKykoiACIiACHQgoImBz0DbZXCurmlODN7sNEBS4S/Fnv+yZkidAC/FQMa2kYiACIiACDgS0MQg/cSgmiB0+by9Z23/0KZH6wDmsUvZ6tdQr0AiAiIgAiLQAwHpGNgHrfoAFuv4oB7agvUW73GYADCqLSerEhEQAREQgUQEtGKQz8SAGvKe3v1iNSluT1zpMAlgVFuJCIiACIhAZgS0YtD/xIDufUuR1ztMALiSIBEBERABESiEgFYM4kwMri3k7b9qpvR3YA0gxGBKEhEQAREQgcIJaGJgmxgwql9pcoRxFYBWFPSeKBEBERABERggAU0M2k0Muob0TdlktjZOAKhI+eSUBdC9RUAEREAE+icgHYMVE4OrC3WMQ2c+VxknAXv13/R0RxEQAREQgRwJjHFi8OkcK6Jlno4zTgDe1/I+Ok0EREAERGCkBIa8lVByhLx9jROAU0banlVsERABERABI4EhrBjsaGSQ8vKdjBOAs1JmXvcWAREQAREYHoGSVgw2KRj/Q40TgEsLLruyLgIiIAIiUBCBHFcM1iuIXzOrNOOzuEX+VTNB/S0CIiACIiACfRJIOTHgvUuV1Y0TgFtLLbjyLQIiIAIiMGwCfUwMNAEYdhtS6URABERABAZEoK5jcJvxLXj9grloC6DgylPWRUAEREAEbAQuM04ANrXdPunVUgJMil83FwEREAERSEngh8YJgMwAU9ae7i0CIiACIiACHQl82TgBkCOgjuB1mQiIgAiIgAikJHCMcQJwbMrMG+99vLHscgVsrABdLgIiIAIikI7Aa42DYMnBgK4xll3BgNK1W91ZBERABETASGB70jE5RwAABVxJREFU4yBIRzpbGvOQ4vLHOZR7hxQZ1z1FQAREQAREwIMAPflZvOHx2vd7ZKTnNI40lvsPAEo2gewZt24nAiIgAiKQI4GLjIPhdQDulWPB5uRpLQDMs2Xi86M5aetrERABERABESiGwGHGwZADKUPrliL7O5T33aUUVvkUAREQAREQgXkEaMtveRvmtVcA4Jt17nJvAFc6lJehhCUiIAIiIAIiUDSBNQD81mFQfFcBFA52KOevAZCZRAREQAREQASKJ/BvDgPj7QC2yJjEowHc4VDOD2ZcRmVNBERABERABIIIbOcwMHIr4GIAawfduZ+TufR/oVMZt+kny7qLCIiACIiACMQn8D8A/LfTAHkigLvHz3LrO9xjsjLxBaeycYJDVhIREAEREAERGAwB+vW3KgNW13OZPIeBknn4sGO5dh9MbasgIiACIiACIjAlQMW2XzgOlh8DwLfvVMJViKMdy3M5gNVTFUb3FQEREAEREIGYBF7jOGByNYDbASl0Au7juOxfrWrsHRO80hYBERABERCBlAT4hnuZ8ySA++Z9WgdQ2/8S5zIwPZn+pWyZurcIiIAIiEB0Ars5D558g6b5HT0OxlwNoDviAwHcFiH/T49OXTcQAREQAREQgQwInBBhEOVEgF74XufsNZAeCF8P4KpIef5cBvWhLIiACIiACIhALwQ2BHBDpAGVEwEG42EUwa07WgtQu58hfY8AcH3kfG7UC3HdRAREQAREQAQyIfC8iANrpVjHz2sAHDcNKPQ0AA+fhtpdDQD/Mewuv+Nv+wE4fnpNPY0Yx38EsEsmdaFsiIAIiIAIiECvBN7b0yQgxgBuTfM9vZLWzURABERABEQgIwJ/BuD0EU4CvgmAZZeIgAiIgAiIwGgJ3BfAeSOaBJwzsVhYd7S1rYKLgAiIgAiIQI3AAwFcOoJJAL39bVwrtw5FQAREQAREYPQENnF2FWzdo/e+/mcAHjr6WhYAERABERABEZhBgOaBPx7gSsC5k6BBMvebUeH6SgREQAREQAQqAusA+MaAJgFU+GOZJCIgAiIgAiIgAksIMGYAHfl4L8P3mR7t/A+Wtv+SmtbPIiACIiACIjCDwK4Ari1wIkAvh8+eUR59JQIiIAIiIAIi0JIA985PKmgSQN/+2u9vWbk6TQREQAREQASWEdgBwPkZTwR+AmCnZYXQ7yIgAiIgAiIgAuEEqBvAaH9XZDQRoG3/3gDWCC+OrhABERABERABEQghwInAKwBcnHAiwHvvPg0oFJJ3nSsCIiACIiACImAkcDcA20xc6x4G4Fc9TAao3PcJANyOYMhgiQiIgAiIgAiIQGICXBXYGcAhAM4E8AeHCQHT+BEARu7j/r6W+RNXsm4vAiIgAiIgAssIrAfgKRMzwlcDOBzAKQDOAkBlvesB3Db9d930O3og5Dk8d6/pW/76y26i30VABERABERABERABERABERABERABERABERABERABERABERABERABERABERABERABERABERABERABERABERABERABERABERABERABERABERABERABERABERABERABERABERABERABERABERABERABERABERABERABERABERABERABERABERABERABERABERABERABERABERABERABERABERABERABERABERABERABERABERABERABERABERABERABERABERABERABERABERABERABERABERABERABERABERABERABERABERABERABERABERABERABERABERABERABERABERABERABERABERABERABERABERABERABERABOIQ+P8BIcxi5n1/9C8AAAAASUVORK5CYII=;" vertex="1" parent="1">
          <mxGeometry x="870" y="468" width="82" height="82" as="geometry" />
        </mxCell>
        <mxCell id="jWsUyRXlON7tYup3zoa7-68" value="Machine Learning" style="text;html=1;align=center;verticalAlign=middle;whiteSpace=wrap;rounded=0;" vertex="1" parent="1">
          <mxGeometry x="850" y="540" width="120" height="30" as="geometry" />
        </mxCell>
        <mxCell id="jWsUyRXlON7tYup3zoa7-71" value="" style="verticalLabelPosition=bottom;shadow=0;dashed=0;align=center;html=1;verticalAlign=top;strokeWidth=1;shape=mxgraph.mockup.markup.line;strokeColor=#666666;fillColor=#f5f5f5;fontColor=#333333;" vertex="1" parent="1">
          <mxGeometry x="84.24" y="400" width="100" height="20" as="geometry" />
        </mxCell>
      </root>
    </mxGraphModel>
  </diagram>
</mxfile>
